<svg width="32" height="32" viewBox="0 0 32 32" fill="none" xmlns="http://www.w3.org/2000/svg">
<path d="M15.4078 27.026C15.1438 26.938 14.8624 27.0807 14.7751 27.342L14.3304 28.6753C14.2431 28.9373 14.3851 29.2207 14.6464 29.308C14.6998 29.3254 14.7531 29.3333 14.8051 29.3333C15.0144 29.3333 15.2098 29.2007 15.2791 28.9913L15.7238 27.658C15.8111 27.396 15.6698 27.1127 15.4078 27.026Z" fill="#E5F0F4"/>
<path d="M9.69063 23.762C9.44596 23.7067 9.21196 23.848 9.12529 24.0753C9.11662 24.0987 9.10129 24.118 9.09529 24.1433L9.07862 24.2133C8.89529 24.954 8.29196 26.466 8.28596 26.4813C8.18329 26.7373 8.30796 27.0287 8.56462 27.1313C8.62529 27.156 8.68862 27.1673 8.74996 27.1673C8.94796 27.1673 9.13596 27.0487 9.21396 26.8533C9.23863 26.7913 9.79329 25.3993 10.0166 24.5707C10.0266 24.5327 10.04 24.4893 10.0493 24.454L10.072 24.3573C10.1306 24.0873 9.95996 23.8207 9.69063 23.762Z" fill="#E5F0F4"/>
<path d="M3.77202 17.9763C3.77202 17.9757 3.77135 17.975 3.77135 17.9743C3.70068 17.413 3.66602 16.7903 3.66602 16.0857C3.66602 15.417 3.72535 14.753 3.83002 14.0977C3.83002 14.097 3.83002 14.097 3.82935 14.0963C3.90402 13.6317 3.99802 13.1703 4.12402 12.7183C4.19935 12.4523 4.04335 12.1763 3.77735 12.1023C3.53868 12.035 3.30135 12.159 3.19935 12.375V12.3757C3.18735 12.4003 3.16935 12.421 3.16202 12.449C2.98935 13.067 2.86402 13.697 2.78135 14.335C2.78135 14.3357 2.78202 14.337 2.78202 14.3377C2.70668 14.915 2.66602 15.499 2.66602 16.0857C2.66602 18.033 2.91135 19.4337 3.46202 20.627C3.54668 20.8097 3.72735 20.9177 3.91668 20.9177C3.98668 20.9177 4.05802 20.903 4.12602 20.8717C4.37668 20.7557 4.48602 20.459 4.37068 20.2077C4.07535 19.5677 3.88002 18.845 3.77202 17.9763Z" fill="#E5F0F4"/>
<path d="M8.36351 19.5867C8.33218 19.5647 8.30218 19.536 8.27085 19.5127C8.30285 19.5353 8.33151 19.5633 8.36351 19.5853C8.32218 19.1327 8.26151 18.7073 8.20151 18.2853C8.09818 17.5673 8.00085 16.8873 8.00085 16.0833C8.00085 15.8333 8.01618 15.5873 8.03818 15.3427C8.16418 13.9507 8.63751 12.6587 9.37485 11.5593C10.3522 10.102 11.7902 8.988 13.4735 8.42C13.4735 8.42 13.4735 8.42 13.4728 8.42C14.2688 8.15133 15.1168 8 16.0008 8C16.6922 8 17.3775 8.08867 18.0395 8.26467C18.3082 8.336 18.5808 8.17667 18.6508 7.90933C18.7208 7.642 18.5628 7.36867 18.2955 7.298C17.5508 7.1 16.7788 7 16.0008 7C14.5335 7 13.1522 7.36467 11.9268 7.996C11.9255 7.996 11.9248 7.99533 11.9235 7.99533C11.9182 7.998 11.9135 8.002 11.9082 8.00467C11.9015 8.008 11.8948 8.01 11.8882 8.01333C11.8895 8.014 11.8902 8.014 11.8915 8.014C10.5455 8.722 9.36218 9.77333 8.52218 11.038C7.82285 12.0913 7.34418 13.302 7.13151 14.602C7.05218 15.0853 7.00085 15.5773 7.00085 16.0827C7.00085 16.958 7.10818 17.7053 7.21151 18.4273C7.22351 18.514 7.23618 18.6007 7.24818 18.6873C7.40551 19.8153 7.52685 21.014 7.22551 22.6887C7.22551 22.6887 7.22618 22.6887 7.22618 22.6893C7.10085 23.3867 6.90551 24.174 6.60818 25.0967C6.52351 25.36 6.66818 25.6413 6.93085 25.726C6.98218 25.742 7.03351 25.75 7.08418 25.75C7.29551 25.75 7.49151 25.6153 7.56018 25.4033C7.79951 24.6607 7.97485 23.998 8.10485 23.3927C8.10485 23.3927 8.10418 23.3927 8.10418 23.392C8.44818 21.7927 8.45751 20.6167 8.36351 19.5867Z" fill="#E5F0F4"/>
<path d="M6.05603 18.8078C5.99403 18.3485 5.93203 17.8358 5.8887 17.3252C5.85536 16.9385 5.8327 16.5332 5.8327 16.0838C5.8327 15.2685 5.93203 14.4638 6.1187 13.6865C6.12403 13.6632 6.14603 13.5752 6.15136 13.5545C6.4427 12.4065 6.92803 11.3178 7.5847 10.3385C7.57736 10.3325 7.57136 10.3258 7.56403 10.3198C7.57136 10.3258 7.57803 10.3325 7.58536 10.3385C8.2547 9.3405 9.09936 8.4565 10.0947 7.73917C10.2194 7.64917 10.284 7.51317 10.2947 7.37117C10.302 7.25717 10.2787 7.1405 10.2074 7.04117C10.0467 6.81784 9.7347 6.76717 9.50936 6.92784C9.49736 6.9365 9.48603 6.94584 9.4747 6.9545C8.44536 7.7025 7.5667 8.61517 6.8567 9.63984C6.8567 9.63984 6.85603 9.63917 6.85536 9.6385C6.85203 9.64317 6.83603 9.66784 6.83603 9.6685C6.22136 10.5672 5.7187 11.5772 5.3827 12.6158C5.3787 12.6285 5.35203 12.7138 5.3467 12.7298C5.03736 13.7325 4.85736 14.8078 4.83803 15.8778C4.83736 15.9005 4.83203 16.1412 4.83203 16.1698C4.83803 17.2538 4.9527 18.1105 5.0647 18.9392C5.13536 19.4632 5.20003 19.9625 5.23336 20.4812C5.2827 21.3085 5.25203 22.2498 5.01003 23.3965C4.95336 23.6665 5.12603 23.9318 5.3967 23.9885C5.4307 23.9972 5.46603 24.0005 5.50003 24.0005C5.73136 24.0005 5.93936 23.8392 5.9887 23.6032C6.13603 22.9025 6.20936 22.2918 6.2387 21.7292L6.23803 21.7285C6.29736 20.6345 6.18136 19.7358 6.05603 18.8078Z" fill="#E5F0F4"/>
<path d="M27.1959 19.9177C27.1899 19.9177 27.1845 19.9217 27.1785 19.9217C26.9112 19.9417 26.7052 20.1664 26.7152 20.4357C26.7172 20.4804 26.7172 20.5284 26.7192 20.573C26.7385 21.1317 26.7505 21.7164 26.7505 22.333C26.7505 22.609 26.9745 22.833 27.2505 22.833C27.5265 22.833 27.7505 22.609 27.7505 22.333C27.7505 21.6544 27.7372 21.0084 27.7145 20.3984C27.7039 20.1224 27.4819 19.903 27.1959 19.9177Z" fill="#E5F0F4"/>
<path d="M18.9156 23.1952C18.9322 22.9206 18.7222 22.6839 18.4462 22.6672C18.1616 22.6479 17.9342 22.8612 17.9176 23.1366C17.9162 23.1539 17.8402 24.3186 17.4629 25.9152C17.4662 25.9146 17.4689 25.9139 17.4722 25.9139C17.4696 25.9139 17.4662 25.9159 17.4636 25.9159C17.2682 26.7426 16.9942 27.6832 16.6049 28.6459C16.5016 28.9019 16.6249 29.1932 16.8809 29.2972C16.9429 29.3212 17.0062 29.3332 17.0682 29.3332C17.2662 29.3332 17.4536 29.2152 17.5322 29.0206C17.9762 27.9219 18.3109 26.6892 18.5236 25.7532C18.5249 25.7532 18.5269 25.7526 18.5282 25.7526C18.5402 25.6979 18.5489 25.6486 18.5602 25.5952C18.5636 25.5792 18.5689 25.5586 18.5722 25.5426C18.5716 25.5426 18.5709 25.5432 18.5702 25.5432C18.8489 24.1992 18.9116 23.2612 18.9156 23.1952Z" fill="#E5F0F4"/>
<path d="M23.4245 19.6654C23.3752 18.25 23.2319 16.9327 23.0625 15.9614C23.0632 15.9614 23.0632 15.9607 23.0639 15.9607C23.0612 15.9474 23.0119 15.6714 22.9899 15.566C22.8899 15.0774 22.7639 14.608 22.6152 14.172C22.5265 13.91 22.2412 13.7707 21.9805 13.86C21.7192 13.9494 21.5792 14.2334 21.6685 14.4947C21.8039 14.8914 21.9185 15.3194 22.0105 15.7674C22.0552 15.9847 22.0972 16.2334 22.1379 16.496C22.2959 17.52 22.4159 18.862 22.4359 20.3427C22.4539 21.656 22.3905 23.0727 22.2052 24.4627L22.2045 24.4634C22.0725 25.458 21.8799 26.4394 21.6052 27.3567C21.5259 27.6207 21.6759 27.8994 21.9405 27.9794C21.9872 27.9934 22.0359 28 22.0832 28C22.2979 28 22.4972 27.8607 22.5619 27.6434C22.9092 26.486 23.1485 25.0834 23.2865 23.8254C23.2879 23.8247 23.3072 23.64 23.3059 23.6407C23.4359 22.2927 23.4672 20.892 23.4272 19.6627C23.4265 19.6634 23.4252 19.6647 23.4245 19.6654Z" fill="#E5F0F4"/>
<path d="M21.1657 19.319C21.1417 18.4703 21.0711 17.6457 21.0011 17.0203C21.0017 17.0203 20.9884 16.901 20.9864 16.8857C20.9864 16.8857 20.9857 16.8863 20.9851 16.8863C20.8351 15.6683 20.6391 14.9423 20.5597 14.689C20.3497 13.9897 19.9731 13.371 19.4884 12.8557H19.4891C18.6051 11.915 17.3504 11.333 15.9991 11.333C15.4871 11.333 14.9837 11.417 14.5057 11.5817L14.4111 11.615C14.1517 11.7097 14.0177 11.9963 14.1124 12.2557C14.2071 12.5157 14.4951 12.649 14.7531 12.5543L14.8277 12.5277C15.2044 12.399 15.5977 12.333 15.9991 12.333C16.8337 12.333 17.6364 12.629 18.2864 13.123H18.2857C18.9024 13.5923 19.3811 14.2397 19.6084 14.9937C19.6657 15.1757 19.8871 15.9577 20.0364 17.3737C20.0397 17.3723 20.0404 17.373 20.0377 17.3737C20.0971 17.9337 20.1457 18.5823 20.1671 19.347C20.1857 20.0197 20.1771 20.679 20.1524 21.331C20.1517 21.331 20.1517 21.3317 20.1511 21.3317C20.0971 22.7677 19.9391 24.1517 19.6757 25.4743C19.6811 25.473 19.6864 25.4703 19.6917 25.469C19.6864 25.4703 19.6811 25.4737 19.6757 25.475C19.4737 26.4923 19.2137 27.477 18.8884 28.4197C18.7984 28.681 18.9371 28.9657 19.1977 29.0557C19.2517 29.0743 19.3071 29.083 19.3611 29.083C19.5684 29.083 19.7624 28.953 19.8337 28.7463C20.2171 27.6337 20.5357 26.3297 20.7577 25.1097C20.7591 25.109 20.7604 25.109 20.7611 25.1083C20.7657 25.0817 20.7851 24.959 20.7837 24.959C20.9984 23.6903 21.1271 22.319 21.1624 20.961C21.1631 20.961 21.1631 20.961 21.1637 20.9603C21.1637 20.949 21.1637 20.9377 21.1637 20.927C21.1637 20.9157 21.1651 20.9043 21.1651 20.8923C21.1644 20.8923 21.1644 20.893 21.1637 20.893C21.1751 20.3743 21.1804 19.851 21.1657 19.319Z" fill="#E5F0F4"/>
<path d="M16.8692 21.6948C16.9298 20.5175 16.8978 19.3268 16.8412 18.3975C16.8318 18.2435 16.7912 17.7008 16.7898 17.6875H16.7892C16.6972 16.7322 16.5858 16.1335 16.5732 16.0695C16.5212 15.7995 16.2598 15.6222 15.9865 15.6755C15.7158 15.7288 15.5392 15.9915 15.5925 16.2622C15.5958 16.2775 15.7072 16.8702 15.7972 17.8442C15.8018 17.8915 15.8198 18.1055 15.8245 18.1648C15.9032 19.1642 15.9478 20.4908 15.8478 21.9915H15.8472C15.7812 22.9855 15.6538 24.0508 15.4265 25.1482C15.3705 25.4188 15.5445 25.6828 15.8152 25.7388C15.8492 25.7462 15.8832 25.7495 15.9172 25.7495C16.1492 25.7495 16.3572 25.5868 16.4058 25.3508C16.6325 24.2555 16.7758 22.9822 16.8505 21.9568C16.8525 21.9562 16.8698 21.6948 16.8692 21.6948Z" fill="#E5F0F4"/>
<path d="M12.0807 25.1661C12.428 23.9168 12.5954 22.7541 12.6514 21.6914C12.652 21.6748 12.6587 21.5234 12.6594 21.5048C12.716 20.0108 12.578 18.6434 12.4594 17.5954C12.456 17.5648 12.4527 17.5374 12.4494 17.5074H12.45C12.3874 16.9494 12.334 16.4628 12.334 16.0834C12.334 15.2154 12.6154 14.4008 13.1487 13.7268C13.32 13.5108 13.2827 13.1961 13.0667 13.0248C13.0354 13.0001 12.9994 12.9894 12.9647 12.9728C12.91 12.9494 12.8474 12.9354 12.7867 12.9268C12.6294 12.9174 12.47 12.9734 12.364 13.1061C11.7 13.9461 11.334 15.0034 11.334 16.0834C11.334 16.4001 11.368 16.7728 11.4094 17.1708H11.4087C11.4274 17.3468 11.4434 17.5154 11.4654 17.7074C11.576 18.6874 11.7114 19.8854 11.6687 21.2661C11.67 21.2668 11.6714 21.2674 11.6734 21.2681C11.672 21.2674 11.6707 21.2674 11.6694 21.2668C11.634 22.4094 11.4727 23.6774 11.0774 25.0494H11.0767C10.8554 25.8201 10.5627 26.6214 10.1707 27.4541C10.0534 27.7041 10.16 28.0021 10.41 28.1194C10.4787 28.1514 10.5514 28.1668 10.6227 28.1668C10.81 28.1668 10.99 28.0608 11.0754 27.8794C11.4447 27.0948 11.7814 26.1574 12.016 25.3934C12.018 25.3941 12.0194 25.3948 12.0214 25.3954C12.0327 25.3568 12.04 25.3201 12.0507 25.2814C12.0614 25.2448 12.076 25.2028 12.086 25.1674C12.0847 25.1668 12.0827 25.1668 12.0807 25.1661Z" fill="#E5F0F4"/>
<path d="M14.7697 21.7507C14.771 21.7333 14.7737 21.6947 14.773 21.6947C14.8557 20.306 14.7704 18.93 14.6757 17.9327C14.6764 17.9327 14.677 17.9327 14.6777 17.9327C14.6704 17.862 14.6537 17.7 14.6524 17.688C14.6524 17.688 14.6524 17.688 14.6517 17.688C14.6317 17.502 14.6124 17.322 14.5937 17.1573C14.541 16.692 14.499 16.3247 14.499 16.0827C14.499 15.2093 15.1717 14.4993 15.999 14.4993C16.6764 14.4993 17.0884 14.7953 17.4684 15.556C17.5717 15.7627 17.7584 16.6813 17.899 17.848C17.9077 17.8467 17.9077 17.8487 17.899 17.85C18.0004 18.6893 18.0777 19.6573 18.0824 20.5853C18.0837 20.8607 18.307 21.0833 18.5824 21.0833C18.583 21.0833 18.5837 21.0833 18.5844 21.0833C18.861 21.082 19.0837 20.8573 19.0824 20.5813C19.0777 19.6927 18.9897 18.58 18.885 17.6767C18.8857 17.6767 18.8864 17.6767 18.887 17.676C18.8824 17.638 18.8697 17.5353 18.8677 17.522H18.867C18.723 16.386 18.5297 15.4407 18.363 15.1073C18.0177 14.4187 17.397 13.5 15.999 13.5C14.6204 13.5 13.499 14.6587 13.499 16.0833C13.499 16.382 13.5437 16.774 13.5997 17.2707C13.6177 17.43 13.637 17.6027 13.6564 17.7813C13.6584 17.7813 13.6597 17.782 13.6617 17.782C13.6597 17.782 13.6584 17.782 13.6564 17.782C13.7677 18.822 13.879 20.1867 13.7644 21.798C13.681 22.97 13.4777 24.27 13.0677 25.666C12.8284 26.4833 12.5197 27.3333 12.121 28.2093C12.007 28.4607 12.1177 28.7573 12.369 28.8713C12.4364 28.902 12.5064 28.916 12.5757 28.916C12.7657 28.916 12.9477 28.8073 13.031 28.6233C13.441 27.7227 13.8004 26.7013 14.0557 25.842C14.057 25.842 14.1064 25.666 14.1044 25.666C14.4537 24.396 14.6577 23.0387 14.7517 21.9373C14.7544 21.9373 14.7657 21.8133 14.7697 21.7507Z" fill="#E5F0F4"/>
<path d="M29.2119 14.372C29.1279 13.7134 28.9792 13 28.8019 12.3654C28.8025 12.3634 28.7845 12.2934 28.7812 12.282C28.7805 12.2834 28.7799 12.2854 28.7799 12.2874C28.5872 11.63 28.3352 10.9567 28.0499 10.3447C28.0505 10.344 28.0505 10.3434 28.0512 10.342C28.0479 10.3354 28.0439 10.3294 28.0412 10.3227C28.0379 10.3147 28.0345 10.306 28.0312 10.298C28.0305 10.2987 28.0305 10.3 28.0299 10.3007C27.6439 9.48869 27.1745 8.72535 26.6399 8.01135C25.9925 7.14669 25.2452 6.36202 24.4079 5.67602C22.7205 4.29402 20.6872 3.30802 18.4252 2.88935C18.1532 2.83535 17.8919 3.01802 17.8425 3.29002C17.7919 3.56135 17.9719 3.82202 18.2432 3.87269C20.2485 4.24335 22.0585 5.10002 23.5799 6.29602C24.4992 7.01802 25.3105 7.86202 25.9905 8.80869C26.5805 9.63069 27.0692 10.5267 27.4465 11.4787C27.4552 11.464 27.4552 11.4647 27.4465 11.4794C27.7779 12.3147 28.0232 13.19 28.1692 14.098C28.1692 14.098 28.1692 14.0987 28.1685 14.0994C28.2725 14.748 28.3332 15.41 28.3332 16.0847V16.166C28.3332 16.4047 28.5045 16.5954 28.7285 16.6447C28.7632 16.6534 28.7959 16.6667 28.8332 16.6667C29.1092 16.6667 29.3332 16.4427 29.3332 16.1667V16.0854C29.3332 15.5047 29.2839 14.9347 29.2119 14.372Z" fill="#E5F0F4"/>
<path d="M27.0517 18.4163C27.067 18.4163 27.083 18.4157 27.0984 18.4143C27.3737 18.389 27.5757 18.145 27.5497 17.8703C27.479 17.1123 27.3784 16.3363 27.291 15.7357C27.291 15.735 27.2917 15.735 27.2917 15.7343C27.287 15.705 27.273 15.611 27.2704 15.5937C27.2704 15.5937 27.2697 15.5943 27.2697 15.595C27.065 14.2623 26.8564 13.4157 26.7757 13.1197C26.735 12.9703 26.657 12.749 26.6117 12.603C26.611 12.6037 26.6104 12.605 26.6097 12.6057C26.267 11.5423 25.7817 10.553 25.1664 9.66501C24.4384 8.61301 23.5377 7.70234 22.5137 6.96034C22.5137 6.96034 22.5137 6.96034 22.5144 6.96034C20.6604 5.61701 18.4004 4.83301 16.0004 4.83301C14.583 4.83301 13.201 5.09701 11.893 5.61834C11.6364 5.72034 11.5117 6.01167 11.6137 6.26834C11.7164 6.52501 12.007 6.64901 12.2637 6.54767C13.453 6.07301 14.7097 5.83301 16.0004 5.83301C18.0017 5.83301 19.8997 6.42701 21.5024 7.46834C21.5024 7.46834 21.5024 7.46834 21.5017 7.46834C22.6484 8.21301 23.6437 9.18701 24.4177 10.3357C25.035 11.2517 25.5117 12.279 25.8124 13.391C25.8244 13.4337 25.8444 13.5123 25.8684 13.6097C25.8717 13.6057 25.8744 13.6017 25.8777 13.5983C25.8744 13.6017 25.8717 13.6063 25.869 13.6097C25.983 14.0697 26.2184 15.1277 26.4177 16.7183C26.427 16.791 26.5204 17.6003 26.5544 17.9623C26.5784 18.2217 26.7964 18.4163 27.0517 18.4163Z" fill="#E5F0F4"/>
<path d="M25.3872 18.1311C25.3839 18.0871 25.3739 17.9625 25.3725 17.9445C25.3719 17.9451 25.3719 17.9451 25.3712 17.9458C25.2552 16.5338 25.0545 15.3365 24.8972 14.5765C24.8979 14.5758 24.8685 14.4371 24.8645 14.4198C24.8639 14.4198 24.7519 13.9418 24.7099 13.7918C24.4539 12.7978 24.0299 11.8738 23.4765 11.0391C23.4765 11.0391 23.4759 11.0391 23.4759 11.0398C22.7759 9.98112 21.8625 9.06979 20.7652 8.37712C20.5319 8.22979 20.2232 8.29912 20.0752 8.53312C19.9279 8.76646 19.9979 9.07512 20.2312 9.22312C21.1939 9.83112 21.9979 10.6291 22.6205 11.5625C22.6205 11.5625 22.6212 11.5625 22.6212 11.5618C23.1285 12.3218 23.5179 13.1698 23.7552 14.0931C23.8219 14.3351 23.9212 14.7405 24.0252 15.2951C24.1865 16.1538 24.3572 17.3865 24.4405 18.9838L24.4399 18.9845C24.4979 20.0918 24.5099 21.3785 24.4465 22.8365C24.4452 22.8378 24.4439 22.8391 24.4425 22.8405C24.4045 23.6658 24.3445 24.5398 24.2512 25.4745C24.2232 25.7491 24.4239 25.9945 24.6985 26.0218C24.7152 26.0238 24.7325 26.0245 24.7492 26.0245C25.0025 26.0245 25.2205 25.8318 25.2459 25.5745C25.3732 24.2971 25.4425 23.1238 25.4719 22.0431C25.4732 22.0418 25.4745 22.0405 25.4759 22.0391C25.5112 20.6205 25.4605 19.2211 25.3839 18.1338C25.3852 18.1325 25.3865 18.1318 25.3872 18.1311Z" fill="#E5F0F4"/>
<path d="M4.99329 10.4743C5.28996 9.88561 5.63263 9.33228 6.00796 8.80895C5.99663 8.79628 5.98729 8.78095 5.97596 8.76761C5.98729 8.78095 5.99796 8.79561 6.00929 8.80895C6.69596 7.85028 7.50796 7.00695 8.41663 6.29361C10.502 4.65495 13.0886 3.70428 15.84 3.66895C16.116 3.66561 16.3373 3.43895 16.3333 3.16228C16.33 2.88828 16.1066 2.66895 15.8333 2.66895C15.8313 2.66895 15.8293 2.66895 15.8266 2.66895C12.762 2.70828 9.88396 3.79428 7.59063 5.67561C7.59063 5.67561 7.59063 5.67561 7.59129 5.67561C6.77463 6.34561 6.03596 7.11961 5.38729 7.98095L5.38663 7.98028C5.38329 7.98428 5.38063 7.98961 5.37729 7.99361C5.37263 8.00028 5.36729 8.00628 5.36196 8.01295C5.36263 8.01361 5.36263 8.01361 5.36329 8.01428C4.89396 8.64561 4.44263 9.34761 4.07929 10.0689L4.05863 10.1096C3.93529 10.3563 4.05596 10.6143 4.30263 10.7383C4.36463 10.7696 4.43196 10.7836 4.49929 10.7836C4.69796 10.7836 4.90063 10.6583 4.99329 10.4743Z" fill="#E5F0F4"/>
<path d="M15.9993 9.16699C13.6973 9.16699 11.662 10.3283 10.4227 12.0997C9.63402 13.227 9.16602 14.5997 9.16602 16.0837C9.16602 16.0897 9.16668 16.095 9.16668 16.101C9.16802 16.7357 9.22002 17.1983 9.28135 17.7317C9.35068 18.3377 9.43268 19.0577 9.47335 20.287C9.47802 20.2897 9.48335 20.2917 9.48802 20.2943C9.48335 20.2917 9.47802 20.2903 9.47335 20.2877C9.48802 20.731 9.49735 21.2377 9.49935 21.835C9.49935 22.111 9.72335 22.3337 9.99935 22.3337C9.99935 22.3337 10 22.3337 10.0007 22.3337C10.2767 22.333 10.5 22.109 10.4993 21.8323C10.4987 21.4763 10.4927 21.1037 10.4867 20.7963C10.4867 20.7863 10.486 20.7783 10.486 20.769C10.486 20.7557 10.4853 20.739 10.4853 20.7257C10.4853 20.7257 10.4853 20.7257 10.4847 20.7257C10.45 19.1683 10.3547 18.3157 10.2747 17.617C10.2353 17.2757 10.2027 16.9763 10.184 16.651C10.1733 16.4737 10.166 16.2903 10.166 16.0837C10.166 14.7323 10.62 13.4897 11.374 12.4923C12.4413 11.0817 14.1147 10.167 15.9993 10.167C17.7827 10.167 19.444 10.9783 20.5587 12.393C20.5873 12.429 20.6247 12.453 20.6607 12.479C20.838 12.6083 21.0807 12.6177 21.2613 12.4763C21.3633 12.3957 21.422 12.283 21.4413 12.1643C21.4633 12.0303 21.4353 11.889 21.3447 11.7743C20.0393 10.117 18.0907 9.16699 15.9993 9.16699Z" fill="#E5F0F4"/>
</svg>
