<svg width="24" height="24" viewBox="0 0 24 24" fill="none" xmlns="http://www.w3.org/2000/svg">
<path d="M10.1169 17.9867H2.88281" stroke="#E5F0F4" stroke-width="1.5" stroke-linecap="round" stroke-linejoin="round"/>
<path fill-rule="evenodd" clip-rule="evenodd" d="M21.1174 17.9869C21.1174 19.5775 19.828 20.8669 18.2374 20.8669C16.6468 20.8669 15.3574 19.5775 15.3574 17.9869C15.3574 16.3952 16.6468 15.1069 18.2374 15.1069C19.828 15.1069 21.1174 16.3952 21.1174 17.9869Z" stroke="#E5F0F4" stroke-width="1.5" stroke-linecap="round" stroke-linejoin="round"/>
<path d="M13.8828 6.26255H21.1181" stroke="#E5F0F4" stroke-width="1.5" stroke-linecap="round" stroke-linejoin="round"/>
<path fill-rule="evenodd" clip-rule="evenodd" d="M2.88281 6.26232C2.88281 7.85409 4.17222 9.14232 5.76281 9.14232C7.3534 9.14232 8.64281 7.85409 8.64281 6.26232C8.64281 4.67174 7.3534 3.38232 5.76281 3.38232C4.17222 3.38232 2.88281 4.67174 2.88281 6.26232Z" stroke="#E5F0F4" stroke-width="1.5" stroke-linecap="round" stroke-linejoin="round"/>
</svg>
