<svg width="24" height="24" viewBox="0 0 24 24" fill="none" xmlns="http://www.w3.org/2000/svg">
<path d="M20.4523 7.82836C20.3539 7.88996 18.0115 9.18996 18.0115 12.0724C18.1219 15.3596 20.9675 16.5124 21.0163 16.5124C20.9675 16.574 20.5867 18.0828 19.4587 19.6644C18.5635 21.0268 17.5699 22.4004 16.0611 22.4004C14.6259 22.4004 14.1107 21.4924 12.4547 21.4924C10.6763 21.4924 10.1731 22.4004 8.81153 22.4004C7.30273 22.4004 6.23553 20.9532 5.29153 19.6036C4.06513 17.8372 3.02273 15.0652 2.98593 12.4036C2.96113 10.9932 3.23153 9.60676 3.91793 8.42916C4.88673 6.78516 6.61633 5.66916 8.50513 5.63236C9.95233 5.58356 11.2403 6.62596 12.1235 6.62596C12.9699 6.62596 14.5523 5.63236 16.3427 5.63236C17.1155 5.63316 19.1763 5.86596 20.4523 7.82836ZM12.0011 5.35076C11.7435 4.06276 12.4547 2.77476 13.1171 1.95316C13.9635 0.959556 15.3003 0.285156 16.4531 0.285156C16.5267 1.57316 16.0603 2.83636 15.2267 3.75636C14.4787 4.74996 13.1907 5.49796 12.0011 5.35076Z" fill="#E5F0F4"/>
</svg>
