<svg width="33" height="20" viewBox="0 0 33 20" fill="none" xmlns="http://www.w3.org/2000/svg">
<path d="M20.7127 2.24707H11.1445V17.8745H20.7127V2.24707Z" fill="#FF5F00"/>
<path d="M12.283 9.93666C12.2818 8.43181 12.623 6.94644 13.2806 5.59303C13.9381 4.23947 14.8951 3.05336 16.0787 2.12426C14.6127 0.972064 12.852 0.255583 10.9979 0.0566958C9.14394 -0.142192 7.27134 0.184559 5.59422 0.999589C3.9171 1.8146 2.50311 3.08508 1.51386 4.66559C0.524606 6.24624 0 8.07334 0 9.93797C0 11.8028 0.524606 13.6297 1.51386 15.2104C2.50311 16.791 3.9171 18.0614 5.59422 18.8765C7.27134 19.6915 9.14394 20.0182 10.9979 19.8194C12.852 19.6205 14.6127 18.904 16.0787 17.7518C14.8947 16.8224 13.9375 15.6357 13.28 14.2818C12.6224 12.9278 12.2814 11.442 12.283 9.93666Z" fill="#EB001B"/>
<path d="M32.006 10.0621C32.006 11.9269 31.4812 13.7541 30.4918 15.3348C29.5024 16.9154 28.0882 18.1859 26.4109 19.0008C24.7335 19.8156 22.8607 20.1422 21.0066 19.9431C19.1524 19.7439 17.3918 19.0271 15.9258 17.8745C17.109 16.9445 18.0657 15.7581 18.7234 14.4046C19.3813 13.051 19.723 11.5657 19.723 10.0608C19.723 8.5558 19.3813 7.07058 18.7234 5.71702C18.0657 4.36346 17.109 3.17692 15.9258 2.24698C17.3918 1.09442 19.1524 0.377593 21.0066 0.178429C22.8607 -0.0207345 24.7335 0.305798 26.4109 1.1207C28.0882 1.93561 29.5024 3.20601 30.4918 4.78667C31.4812 6.36732 32.006 8.19457 32.006 10.0593V10.0621Z" fill="#F79E1B"/>
</svg>
