<svg width="24" height="24" viewBox="0 0 24 24" fill="none" xmlns="http://www.w3.org/2000/svg">
<path d="M22 5.05556V18.9444C22 20.6278 20.6278 22 18.9444 22H15.8889V14.2222H17.9C18.1833 14.2222 18.4222 14.0111 18.4556 13.7333L18.6611 12.0667C18.6833 11.9111 18.6333 11.75 18.5278 11.6333C18.4222 11.5111 18.2722 11.4444 18.1111 11.4444H15.8889V9.5C15.8889 8.88889 16.3889 8.38889 17 8.38889H18.1111C18.4167 8.38889 18.6667 8.13889 18.6667 7.83333V5.95556C18.6667 5.67222 18.4444 5.43333 18.1611 5.40556C18.1278 5.4 17.3444 5.33333 16.35 5.33333C13.9056 5.33333 12.5556 6.78889 12.5556 9.42778V11.4444H10.3333C10.0278 11.4444 9.77778 11.6944 9.77778 12V13.6667C9.77778 13.9722 10.0278 14.2222 10.3333 14.2222H12.5556V22H5.05556C3.37222 22 2 20.6278 2 18.9444V5.05556C2 3.37222 3.37222 2 5.05556 2H18.9444C20.6278 2 22 3.37222 22 5.05556Z" fill="#E5F0F4"/>
</svg>
