<svg width="24" height="24" viewBox="0 0 24 24" fill="none" xmlns="http://www.w3.org/2000/svg">
<path d="M17.5947 10.9319C19.1971 10.9319 20.4969 9.63298 20.4969 8.03064C20.4969 6.42831 19.1971 5.12939 17.5947 5.12939" stroke="#E5F0F4" stroke-width="1.5" stroke-linecap="round" stroke-linejoin="round"/>
<path d="M18.9287 14.085C19.4072 14.118 19.883 14.1858 20.3514 14.2912C21.0022 14.4186 21.785 14.6854 22.0637 15.2693C22.2415 15.6433 22.2415 16.0787 22.0637 16.4536C21.786 17.0375 21.0022 17.3034 20.3514 17.4372" stroke="#E5F0F4" stroke-width="1.5" stroke-linecap="round" stroke-linejoin="round"/>
<path d="M6.28986 10.9319C4.68753 10.9319 3.3877 9.63298 3.3877 8.03064C3.3877 6.42831 4.68753 5.12939 6.28986 5.12939" stroke="#E5F0F4" stroke-width="1.5" stroke-linecap="round" stroke-linejoin="round"/>
<path d="M4.95565 14.085C4.47715 14.118 4.0014 14.1858 3.53298 14.2912C2.88215 14.4186 2.09931 14.6854 1.82156 15.2693C1.64281 15.6433 1.64281 16.0787 1.82156 16.4536C2.0984 17.0375 2.88215 17.3034 3.53298 17.4372" stroke="#E5F0F4" stroke-width="1.5" stroke-linecap="round" stroke-linejoin="round"/>
<path fill-rule="evenodd" clip-rule="evenodd" d="M11.9377 14.7095C15.1845 14.7095 17.9583 15.2008 17.9583 17.1671C17.9583 19.1324 15.2028 19.6421 11.9377 19.6421C8.68991 19.6421 5.91699 19.1507 5.91699 17.1845C5.91699 15.2182 8.67249 14.7095 11.9377 14.7095Z" stroke="#E5F0F4" stroke-width="1.5" stroke-linecap="round" stroke-linejoin="round"/>
<path fill-rule="evenodd" clip-rule="evenodd" d="M11.9374 11.9049C9.79602 11.9049 8.0791 10.188 8.0791 8.04575C8.0791 5.90442 9.79602 4.1875 11.9374 4.1875C14.0787 4.1875 15.7956 5.90442 15.7956 8.04575C15.7956 10.188 14.0787 11.9049 11.9374 11.9049Z" stroke="#E5F0F4" stroke-width="1.5" stroke-linecap="round" stroke-linejoin="round"/>
</svg>
