<svg width="13" height="18" viewBox="0 0 13 18" fill="none" xmlns="http://www.w3.org/2000/svg">
<path fill-rule="evenodd" clip-rule="evenodd" d="M10.2507 9.00063C10.2481 11.1297 8.52261 12.8549 6.39355 12.8571C4.26427 12.8548 2.53873 11.1293 2.53641 9V3.85714C2.53641 1.7269 4.26331 0 6.39355 0C8.52379 0 10.2507 1.7269 10.2507 3.85714V9.00063ZM11.505 9.57317C11.547 9.22197 11.8625 8.96906 12.2144 9.00439C12.5673 9.04331 12.8219 9.36087 12.7832 9.7138C12.4469 12.7211 10.0487 15.081 7.03641 15.3688V17.3571C7.03641 17.7122 6.74859 18 6.39355 18C6.03851 18 5.75069 17.7122 5.75069 17.3571V15.3687C2.73893 15.0803 0.341182 12.7211 0.00390166 9.71442C-0.0348677 9.36136 0.219665 9.04362 0.572679 9.00439C0.924129 8.96994 1.23893 9.22206 1.28208 9.57254C1.57393 12.175 3.77451 14.1427 6.39327 14.1429C9.01203 14.143 11.2128 12.1756 11.505 9.57317Z" fill="#E5F0F4"/>
</svg>
