<svg width="50" height="51" viewBox="0 0 50 51" fill="none" xmlns="http://www.w3.org/2000/svg">
<path d="M0 22.4041C3.83457 22.4041 7.16139 22.4041 10.8983 22.4041C10.8983 20.9673 10.8983 19.6656 10.8983 18.3655C10.9015 14.7922 10.8662 11.2174 10.9159 7.64408C10.9799 3.01437 13.9159 0.0903496 18.593 0.0306115C23.2205 -0.0275546 27.8479 0.0180351 32.4753 0.00231449C34.9612 -0.00554579 37.1236 0.9314 38.1551 3.07726C42.1531 11.4044 45.9508 19.8244 50 28.5933C46.2103 28.5933 42.789 28.5933 39.0681 28.5933C39.0681 33.2482 39.0729 37.6169 39.0649 41.9841C39.0633 43.1002 39.1162 44.2274 38.972 45.3294C38.5475 48.5757 36.1802 50.8615 32.9126 50.9306C27.8319 51.0375 22.7463 51.0093 17.6656 50.9244C15.2358 50.8835 13.0654 49.7972 12.0243 47.6812C7.97988 39.4562 4.1325 31.1369 0 22.4041ZM24.968 43.8077C25.1458 43.7636 25.3235 43.7196 25.5013 43.6772C25.5013 38.7472 25.5013 33.8157 25.5013 28.6357C29.203 28.6357 32.6435 28.6357 36.5021 28.6357C32.541 20.8116 28.7705 13.3601 24.9984 5.90853C24.819 5.95569 24.638 6.00285 24.4586 6.05001C24.4586 11.4375 24.4586 16.8265 24.4586 22.3963C20.7618 22.3963 17.3068 22.3963 13.3906 22.3963C17.3709 29.7566 21.1702 36.7821 24.968 43.8077Z" fill="white"/>
</svg>
