<svg width="24" height="24" viewBox="0 0 24 24" fill="none" xmlns="http://www.w3.org/2000/svg">
<path fill-rule="evenodd" clip-rule="evenodd" d="M20.8074 7.62337L20.185 6.54328C19.6584 5.62936 18.4914 5.31408 17.5763 5.83847V5.83847C17.1406 6.0951 16.6208 6.16791 16.1314 6.04084C15.6421 5.91378 15.2233 5.59727 14.9676 5.16113C14.803 4.8839 14.7146 4.56815 14.7113 4.2458V4.2458C14.7261 3.72898 14.5311 3.22816 14.1708 2.85743C13.8104 2.48669 13.3153 2.27762 12.7982 2.27783H11.5442C11.0377 2.27783 10.552 2.47967 10.1947 2.8387C9.83742 3.19773 9.63791 3.68435 9.64034 4.19088V4.19088C9.62533 5.23668 8.77321 6.07657 7.7273 6.07646C7.40494 6.07311 7.08919 5.9847 6.81197 5.82017V5.82017C5.89679 5.29577 4.72985 5.61105 4.20327 6.52497L3.53508 7.62337C3.00914 8.53615 3.32013 9.70236 4.23073 10.2321V10.2321C4.82263 10.5738 5.18726 11.2053 5.18726 11.8888C5.18726 12.5723 4.82263 13.2038 4.23073 13.5456V13.5456C3.32129 14.0717 3.00996 15.2351 3.53508 16.1451V16.1451L4.16666 17.2344C4.41338 17.6795 4.82734 18.0081 5.31693 18.1472C5.80652 18.2863 6.33137 18.2247 6.77535 17.9758V17.9758C7.21181 17.7211 7.73192 17.6513 8.22007 17.782C8.70822 17.9126 9.12397 18.2328 9.3749 18.6714C9.53943 18.9486 9.62784 19.2644 9.63119 19.5868V19.5868C9.63119 20.6433 10.4877 21.4998 11.5442 21.4998H12.7982C13.8512 21.4998 14.7062 20.6489 14.7113 19.5959V19.5959C14.7088 19.0878 14.9096 18.5998 15.2689 18.2405C15.6282 17.8812 16.1162 17.6804 16.6243 17.6829C16.9459 17.6915 17.2604 17.7795 17.5397 17.9392V17.9392C18.4524 18.4651 19.6186 18.1541 20.1484 17.2435V17.2435L20.8074 16.1451C21.0625 15.7073 21.1325 15.1858 21.0019 14.6961C20.8714 14.2065 20.551 13.7891 20.1117 13.5364V13.5364C19.6725 13.2837 19.3521 12.8663 19.2215 12.3767C19.091 11.8871 19.161 11.3656 19.4161 10.9277C19.582 10.6381 19.8221 10.398 20.1117 10.2321V10.2321C21.0169 9.70265 21.3271 8.54325 20.8074 7.63252V7.63252V7.62337Z" stroke="#E5F0F4" stroke-width="1.5" stroke-linecap="round" stroke-linejoin="round"/>
<circle cx="12.1752" cy="11.8886" r="2.63616" stroke="#E5F0F4" stroke-width="1.5" stroke-linecap="round" stroke-linejoin="round"/>
</svg>
