<svg width="32" height="32" viewBox="0 0 32 32" fill="none" xmlns="http://www.w3.org/2000/svg">
<path d="M27.0645 1.9H23.6774C23.2383 1.9 22.9 2.23832 22.9 2.67742C22.9 3.11652 23.2383 3.45484 23.6774 3.45484H27.0645C27.8899 3.45484 28.5452 4.11007 28.5452 4.93548V8.32258C28.5452 8.76168 28.8835 9.1 29.3226 9.1C29.7617 9.1 30.1 8.76168 30.1 8.32258V4.93548C30.1 3.25445 28.7456 1.9 27.0645 1.9Z" fill="#E5F0F4" stroke="#E5F0F4" stroke-width="0.2"/>
<path d="M8.32258 1.9H4.93548C3.25445 1.9 1.9 3.25445 1.9 4.93548V8.32258C1.9 8.76168 2.23832 9.1 2.67742 9.1C3.11652 9.1 3.45484 8.76168 3.45484 8.32258V4.93548C3.45484 4.11007 4.11007 3.45484 4.93548 3.45484H8.32258C8.76168 3.45484 9.1 3.11652 9.1 2.67742C9.1 2.23832 8.76168 1.9 8.32258 1.9Z" fill="#E5F0F4" stroke="#E5F0F4" stroke-width="0.2"/>
<path d="M2.67742 22.9C2.23832 22.9 1.9 23.2383 1.9 23.6774V27.0645C1.9 28.7456 3.25445 30.1 4.93548 30.1H8.32258C8.76168 30.1 9.1 29.7617 9.1 29.3226C9.1 28.8835 8.76168 28.5452 8.32258 28.5452H4.93548C4.11007 28.5452 3.45484 27.8899 3.45484 27.0645V23.6774C3.45484 23.2383 3.11652 22.9 2.67742 22.9Z" fill="#E5F0F4" stroke="#E5F0F4" stroke-width="0.2"/>
<path d="M29.3226 22.9C28.8835 22.9 28.5452 23.2383 28.5452 23.6774V27.0645C28.5452 27.8899 27.8899 28.5452 27.0645 28.5452H23.6774C23.2383 28.5452 22.9 28.8835 22.9 29.3226C22.9 29.7617 23.2383 30.1 23.6774 30.1H27.0645C28.7456 30.1 30.1 28.7456 30.1 27.0645V23.6774C30.1 23.2383 29.7617 22.9 29.3226 22.9Z" fill="#E5F0F4" stroke="#E5F0F4" stroke-width="0.2"/>
<path d="M14.0006 19.35C14.141 19.35 14.2563 19.3214 14.3703 19.2644L16.3703 18.2644C16.6511 18.1241 16.8506 17.8412 16.8506 17.5V11.25C16.8506 10.7698 16.4808 10.4 16.0006 10.4C15.5204 10.4 15.1506 10.7698 15.1506 11.25V16.9636L13.6317 17.7351C13.2071 17.9344 13.0378 18.443 13.2591 18.8659C13.3783 19.1841 13.695 19.35 14.0006 19.35Z" fill="#E5F0F4" stroke="#E5F0F4" stroke-width="0.2"/>
<path d="M9.75 10.4C9.26977 10.4 8.9 10.7698 8.9 11.25V13.75C8.9 14.2302 9.26977 14.6 9.75 14.6C10.2302 14.6 10.6 14.2302 10.6 13.75V11.25C10.6 10.7698 10.2302 10.4 9.75 10.4Z" fill="#E5F0F4" stroke="#E5F0F4" stroke-width="0.2"/>
<path d="M22.25 10.4C21.7698 10.4 21.4 10.7698 21.4 11.25V13.75C21.4 14.2302 21.7698 14.6 22.25 14.6C22.7302 14.6 23.1 14.2302 23.1 13.75V11.25C23.1 10.7698 22.7302 10.4 22.25 10.4Z" fill="#E5F0F4" stroke="#E5F0F4" stroke-width="0.2"/>
<path d="M9.93178 22.874L9.93198 22.8742C11.651 24.4416 13.8253 25.2253 15.9994 25.2253C18.1734 25.2253 20.3477 24.4416 22.0667 22.8742L22.0669 22.874C22.4068 22.5625 22.4361 22.0243 22.1231 21.6828C21.8115 21.3429 21.2735 21.3136 20.932 21.6265C18.1202 24.1916 13.8787 24.1916 11.0668 21.6265C10.7253 21.3136 10.1872 21.3429 9.87564 21.6828C9.5626 22.0243 9.59186 22.5625 9.93178 22.874Z" fill="#E5F0F4" stroke="#E5F0F4" stroke-width="0.2"/>
</svg>
