<svg width="240" height="32" viewBox="0 0 240 32" fill="none" xmlns="http://www.w3.org/2000/svg">
<g opacity="0.23">
<rect y="8" width="5" height="24" fill="#62737F"/>
<rect x="120" y="11" width="5" height="21" fill="#62737F"/>
<rect x="60" y="8" width="5" height="24" fill="#62737F"/>
<rect x="180" y="14" width="5" height="18" fill="#62737F"/>
<rect x="20" y="8" width="5" height="24" fill="#62737F"/>
<rect x="140" width="5" height="32" fill="#62737F"/>
<rect x="80" width="5" height="32" fill="#62737F"/>
<rect x="200" y="3" width="5" height="29" fill="#62737F"/>
<rect x="40" width="5" height="32" fill="#62737F"/>
<rect x="160" y="21" width="5" height="11" fill="#62737F"/>
<rect x="100" y="8" width="5" height="24" fill="#62737F"/>
<rect x="220" width="5" height="32" fill="#62737F"/>
<rect x="10" width="5" height="32" fill="#62737F"/>
<rect x="130" width="5" height="32" fill="#62737F"/>
<rect x="70" width="5" height="32" fill="#62737F"/>
<rect x="190" width="5" height="32" fill="#62737F"/>
<rect x="30" width="5" height="32" fill="#62737F"/>
<rect x="150" width="5" height="32" fill="#62737F"/>
<rect x="90" y="5" width="5" height="27" fill="#62737F"/>
<rect x="210" y="5" width="5" height="27" fill="#62737F"/>
<rect x="50" y="11" width="5" height="21" fill="#62737F"/>
<rect x="170" y="3" width="5" height="29" fill="#62737F"/>
<rect x="110" y="11" width="5" height="21" fill="#62737F"/>
<rect x="230" width="5" height="32" fill="#62737F"/>
<rect x="5" y="5" width="5" height="27" fill="#62737F"/>
<rect x="125" y="3" width="5" height="29" fill="#62737F"/>
<rect x="65" y="16" width="5" height="16" fill="#62737F"/>
<rect x="185" y="21" width="5" height="11" fill="#62737F"/>
<rect x="25" y="5" width="5" height="27" fill="#62737F"/>
<rect x="145" y="16" width="5" height="16" fill="#62737F"/>
<rect x="85" y="8" width="5" height="24" fill="#62737F"/>
<rect x="205" width="5" height="32" fill="#62737F"/>
<rect x="45" y="5" width="5" height="27" fill="#62737F"/>
<rect x="165" y="5" width="5" height="27" fill="#62737F"/>
<rect x="105" y="16" width="5" height="16" fill="#62737F"/>
<rect x="225" y="18" width="5" height="14" fill="#62737F"/>
<rect x="15" y="11" width="5" height="21" fill="#62737F"/>
<rect x="135" y="8" width="5" height="24" fill="#62737F"/>
<rect x="75" y="5" width="5" height="27" fill="#62737F"/>
<rect x="195" y="16" width="5" height="16" fill="#62737F"/>
<rect x="35" y="8" width="5" height="24" fill="#62737F"/>
<rect x="155" y="8" width="5" height="24" fill="#62737F"/>
<rect x="95" y="21" width="5" height="11" fill="#62737F"/>
<rect x="215" y="8" width="5" height="24" fill="#62737F"/>
<rect x="55" width="5" height="32" fill="#62737F"/>
<rect x="175" y="8" width="5" height="24" fill="#62737F"/>
<rect x="115" y="5" width="5" height="27" fill="#62737F"/>
<rect x="235" y="8" width="5" height="24" fill="#62737F"/>
</g>
</svg>
