<svg width="266" height="266" viewBox="0 0 266 266" fill="none" xmlns="http://www.w3.org/2000/svg">
<g filter="url(#filter0_b_37_8819)">
<rect width="266" height="266" rx="20" fill="url(#paint0_linear_37_8819)"/>
<rect x="0.5" y="0.5" width="265" height="265" rx="19.5" stroke="url(#paint1_linear_37_8819)" stroke-opacity="0.24"/>
</g>
<path d="M52.5 18H24C20.6863 18 18 20.6863 18 24V52.5" stroke="url(#paint2_linear_37_8819)" stroke-width="4" stroke-linecap="round"/>
<path d="M248 52.5L248 24C248 20.6863 245.314 18 242 18L213.5 18" stroke="url(#paint3_linear_37_8819)" stroke-width="4" stroke-linecap="round"/>
<path d="M213.5 248L242 248C245.314 248 248 245.314 248 242L248 213.5" stroke="url(#paint4_linear_37_8819)" stroke-width="4" stroke-linecap="round"/>
<path d="M18 213.5L18 242C18 245.314 20.6863 248 24 248L52.5 248" stroke="url(#paint5_linear_37_8819)" stroke-width="4" stroke-linecap="round"/>
<path d="M87.9346 33.8545H81.9258V39.8633H87.9346V33.8545Z" fill="#E5F0F4"/>
<path d="M93.9434 33.8545H87.9346V39.8633H93.9434V33.8545Z" fill="#E5F0F4"/>
<path d="M105.96 33.8545H99.9512V39.8633H105.96V33.8545Z" fill="#E5F0F4"/>
<path d="M111.97 33.8545H105.961V39.8633H111.97V33.8545Z" fill="#E5F0F4"/>
<path d="M117.978 33.8545H111.969V39.8633H117.978V33.8545Z" fill="#E5F0F4"/>
<path d="M129.995 33.8545H123.986V39.8633H129.995V33.8545Z" fill="#E5F0F4"/>
<path d="M148.022 33.8545H142.014V39.8633H148.022V33.8545Z" fill="#E5F0F4"/>
<path d="M178.066 33.8545H172.058V39.8633H178.066V33.8545Z" fill="#E5F0F4"/>
<path d="M99.9522 39.8633H93.9434V45.8721H99.9522V39.8633Z" fill="#E5F0F4"/>
<path d="M105.96 39.8633H99.9512V45.8721H105.96V39.8633Z" fill="#E5F0F4"/>
<path d="M111.97 39.8633H105.961V45.8721H111.97V39.8633Z" fill="#E5F0F4"/>
<path d="M117.978 39.8633H111.969V45.8721H117.978V39.8633Z" fill="#E5F0F4"/>
<path d="M123.986 39.8633H117.978V45.8721H123.986V39.8633Z" fill="#E5F0F4"/>
<path d="M148.022 39.8633H142.014V45.8721H148.022V39.8633Z" fill="#E5F0F4"/>
<path d="M154.031 39.8633H148.022V45.8721H154.031V39.8633Z" fill="#E5F0F4"/>
<path d="M93.9434 45.8721H87.9346V51.8809H93.9434V45.8721Z" fill="#E5F0F4"/>
<path d="M111.97 45.8721H105.961V51.8809H111.97V45.8721Z" fill="#E5F0F4"/>
<path d="M123.986 45.8721H117.978V51.8809H123.986V45.8721Z" fill="#E5F0F4"/>
<path d="M129.995 45.8721H123.986V51.8809H129.995V45.8721Z" fill="#E5F0F4"/>
<path d="M136.005 45.8721H129.996V51.8809H136.005V45.8721Z" fill="#E5F0F4"/>
<path d="M142.014 45.8721H136.005V51.8809H142.014V45.8721Z" fill="#E5F0F4"/>
<path d="M148.022 45.8721H142.014V51.8809H148.022V45.8721Z" fill="#E5F0F4"/>
<path d="M154.031 45.8721H148.022V51.8809H154.031V45.8721Z" fill="#E5F0F4"/>
<path d="M166.049 45.8721H160.04V51.8809H166.049V45.8721Z" fill="#E5F0F4"/>
<path d="M178.066 45.8721H172.058V51.8809H178.066V45.8721Z" fill="#E5F0F4"/>
<path d="M87.9346 51.8809H81.9258V57.8897H87.9346V51.8809Z" fill="#E5F0F4"/>
<path d="M93.9434 51.8809H87.9346V57.8897H93.9434V51.8809Z" fill="#E5F0F4"/>
<path d="M99.9522 51.8809H93.9434V57.8897H99.9522V51.8809Z" fill="#E5F0F4"/>
<path d="M105.96 51.8809H99.9512V57.8897H105.96V51.8809Z" fill="#E5F0F4"/>
<path d="M111.97 51.8809H105.961V57.8897H111.97V51.8809Z" fill="#E5F0F4"/>
<path d="M136.005 51.8809H129.996V57.8897H136.005V51.8809Z" fill="#E5F0F4"/>
<path d="M142.014 51.8809H136.005V57.8897H142.014V51.8809Z" fill="#E5F0F4"/>
<path d="M166.049 51.8809H160.04V57.8897H166.049V51.8809Z" fill="#E5F0F4"/>
<path d="M172.058 51.8809H166.049V57.8897H172.058V51.8809Z" fill="#E5F0F4"/>
<path d="M87.9346 57.8896H81.9258V63.8985H87.9346V57.8896Z" fill="#E5F0F4"/>
<path d="M93.9434 57.8896H87.9346V63.8985H93.9434V57.8896Z" fill="#E5F0F4"/>
<path d="M99.9522 57.8896H93.9434V63.8985H99.9522V57.8896Z" fill="#E5F0F4"/>
<path d="M105.96 57.8896H99.9512V63.8985H105.96V57.8896Z" fill="#E5F0F4"/>
<path d="M136.005 57.8896H129.996V63.8985H136.005V57.8896Z" fill="#E5F0F4"/>
<path d="M142.014 57.8896H136.005V63.8985H142.014V57.8896Z" fill="#E5F0F4"/>
<path d="M154.031 57.8896H148.022V63.8985H154.031V57.8896Z" fill="#E5F0F4"/>
<path d="M166.049 57.8896H160.04V63.8985H166.049V57.8896Z" fill="#E5F0F4"/>
<path d="M172.058 57.8896H166.049V63.8985H172.058V57.8896Z" fill="#E5F0F4"/>
<path d="M87.9346 63.8989H81.9258V69.9078H87.9346V63.8989Z" fill="#E5F0F4"/>
<path d="M93.9434 63.8989H87.9346V69.9078H93.9434V63.8989Z" fill="#E5F0F4"/>
<path d="M99.9522 63.8989H93.9434V69.9078H99.9522V63.8989Z" fill="#E5F0F4"/>
<path d="M105.96 63.8989H99.9512V69.9078H105.96V63.8989Z" fill="#E5F0F4"/>
<path d="M129.995 63.8989H123.986V69.9078H129.995V63.8989Z" fill="#E5F0F4"/>
<path d="M142.014 63.8989H136.005V69.9078H142.014V63.8989Z" fill="#E5F0F4"/>
<path d="M160.04 63.8989H154.031V69.9078H160.04V63.8989Z" fill="#E5F0F4"/>
<path d="M166.049 63.8989H160.04V69.9078H166.049V63.8989Z" fill="#E5F0F4"/>
<path d="M172.058 63.8989H166.049V69.9078H172.058V63.8989Z" fill="#E5F0F4"/>
<path d="M178.066 63.8989H172.058V69.9078H178.066V63.8989Z" fill="#E5F0F4"/>
<path d="M184.074 63.8989H178.065V69.9078H184.074V63.8989Z" fill="#E5F0F4"/>
<path d="M87.9346 69.9077H81.9258V75.9165H87.9346V69.9077Z" fill="#E5F0F4"/>
<path d="M99.9522 69.9077H93.9434V75.9165H99.9522V69.9077Z" fill="#E5F0F4"/>
<path d="M111.97 69.9077H105.961V75.9165H111.97V69.9077Z" fill="#E5F0F4"/>
<path d="M123.986 69.9077H117.978V75.9165H123.986V69.9077Z" fill="#E5F0F4"/>
<path d="M136.005 69.9077H129.996V75.9165H136.005V69.9077Z" fill="#E5F0F4"/>
<path d="M148.022 69.9077H142.014V75.9165H148.022V69.9077Z" fill="#E5F0F4"/>
<path d="M160.04 69.9077H154.031V75.9165H160.04V69.9077Z" fill="#E5F0F4"/>
<path d="M172.058 69.9077H166.049V75.9165H172.058V69.9077Z" fill="#E5F0F4"/>
<path d="M184.074 69.9077H178.065V75.9165H184.074V69.9077Z" fill="#E5F0F4"/>
<path d="M87.9346 75.916H81.9258V81.9248H87.9346V75.916Z" fill="#E5F0F4"/>
<path d="M105.96 75.916H99.9512V81.9248H105.96V75.916Z" fill="#E5F0F4"/>
<path d="M111.97 75.916H105.961V81.9248H111.97V75.916Z" fill="#E5F0F4"/>
<path d="M123.986 75.916H117.978V81.9248H123.986V75.916Z" fill="#E5F0F4"/>
<path d="M142.014 75.916H136.005V81.9248H142.014V75.916Z" fill="#E5F0F4"/>
<path d="M148.022 75.916H142.014V81.9248H148.022V75.916Z" fill="#E5F0F4"/>
<path d="M154.031 75.916H148.022V81.9248H154.031V75.916Z" fill="#E5F0F4"/>
<path d="M160.04 75.916H154.031V81.9248H160.04V75.916Z" fill="#E5F0F4"/>
<path d="M166.049 75.916H160.04V81.9248H166.049V75.916Z" fill="#E5F0F4"/>
<path d="M184.074 75.916H178.065V81.9248H184.074V75.916Z" fill="#E5F0F4"/>
<path d="M39.8633 81.9253H33.8545V87.9341H39.8633V81.9253Z" fill="#E5F0F4"/>
<path d="M63.8985 81.9253H57.8896V87.9341H63.8985V81.9253Z" fill="#E5F0F4"/>
<path d="M75.9161 81.9253H69.9072V87.9341H75.9161V81.9253Z" fill="#E5F0F4"/>
<path d="M81.9248 81.9253H75.916V87.9341H81.9248V81.9253Z" fill="#E5F0F4"/>
<path d="M87.9346 81.9253H81.9258V87.9341H87.9346V81.9253Z" fill="#E5F0F4"/>
<path d="M99.9522 81.9253H93.9434V87.9341H99.9522V81.9253Z" fill="#E5F0F4"/>
<path d="M111.97 81.9253H105.961V87.9341H111.97V81.9253Z" fill="#E5F0F4"/>
<path d="M129.995 81.9253H123.986V87.9341H129.995V81.9253Z" fill="#E5F0F4"/>
<path d="M142.014 81.9253H136.005V87.9341H142.014V81.9253Z" fill="#E5F0F4"/>
<path d="M160.04 81.9253H154.031V87.9341H160.04V81.9253Z" fill="#E5F0F4"/>
<path d="M166.049 81.9253H160.04V87.9341H166.049V81.9253Z" fill="#E5F0F4"/>
<path d="M172.058 81.9253H166.049V87.9341H172.058V81.9253Z" fill="#E5F0F4"/>
<path d="M178.066 81.9253H172.058V87.9341H178.066V81.9253Z" fill="#E5F0F4"/>
<path d="M190.084 81.9253H184.075V87.9341H190.084V81.9253Z" fill="#E5F0F4"/>
<path d="M196.093 81.9253H190.084V87.9341H196.093V81.9253Z" fill="#E5F0F4"/>
<path d="M202.102 81.9253H196.093V87.9341H202.102V81.9253Z" fill="#E5F0F4"/>
<path d="M208.11 81.9253H202.102V87.9341H208.11V81.9253Z" fill="#E5F0F4"/>
<path d="M214.119 81.9253H208.11V87.9341H214.119V81.9253Z" fill="#E5F0F4"/>
<path d="M232.146 81.9253H226.137V87.9341H232.146V81.9253Z" fill="#E5F0F4"/>
<path d="M39.8633 87.9341H33.8545V93.9429H39.8633V87.9341Z" fill="#E5F0F4"/>
<path d="M45.8721 87.9341H39.8633V93.9429H45.8721V87.9341Z" fill="#E5F0F4"/>
<path d="M69.9073 87.9341H63.8984V93.9429H69.9073V87.9341Z" fill="#E5F0F4"/>
<path d="M81.9248 87.9341H75.916V93.9429H81.9248V87.9341Z" fill="#E5F0F4"/>
<path d="M93.9434 87.9341H87.9346V93.9429H93.9434V87.9341Z" fill="#E5F0F4"/>
<path d="M99.9522 87.9341H93.9434V93.9429H99.9522V87.9341Z" fill="#E5F0F4"/>
<path d="M105.96 87.9341H99.9512V93.9429H105.96V87.9341Z" fill="#E5F0F4"/>
<path d="M129.995 87.9341H123.986V93.9429H129.995V87.9341Z" fill="#E5F0F4"/>
<path d="M136.005 87.9341H129.996V93.9429H136.005V87.9341Z" fill="#E5F0F4"/>
<path d="M142.014 87.9341H136.005V93.9429H142.014V87.9341Z" fill="#E5F0F4"/>
<path d="M148.022 87.9341H142.014V93.9429H148.022V87.9341Z" fill="#E5F0F4"/>
<path d="M166.049 87.9341H160.04V93.9429H166.049V87.9341Z" fill="#E5F0F4"/>
<path d="M172.058 87.9341H166.049V93.9429H172.058V87.9341Z" fill="#E5F0F4"/>
<path d="M178.066 87.9341H172.058V93.9429H178.066V87.9341Z" fill="#E5F0F4"/>
<path d="M190.084 87.9341H184.075V93.9429H190.084V87.9341Z" fill="#E5F0F4"/>
<path d="M214.119 87.9341H208.11V93.9429H214.119V87.9341Z" fill="#E5F0F4"/>
<path d="M220.128 87.9341H214.119V93.9429H220.128V87.9341Z" fill="#E5F0F4"/>
<path d="M226.137 87.9341H220.128V93.9429H226.137V87.9341Z" fill="#E5F0F4"/>
<path d="M45.8721 93.9429H39.8633V99.9517H45.8721V93.9429Z" fill="#E5F0F4"/>
<path d="M51.8809 93.9429H45.8721V99.9517H51.8809V93.9429Z" fill="#E5F0F4"/>
<path d="M69.9073 93.9429H63.8984V99.9517H69.9073V93.9429Z" fill="#E5F0F4"/>
<path d="M75.9161 93.9429H69.9072V99.9517H75.9161V93.9429Z" fill="#E5F0F4"/>
<path d="M81.9248 93.9429H75.916V99.9517H81.9248V93.9429Z" fill="#E5F0F4"/>
<path d="M87.9346 93.9429H81.9258V99.9517H87.9346V93.9429Z" fill="#E5F0F4"/>
<path d="M99.9522 93.9429H93.9434V99.9517H99.9522V93.9429Z" fill="#E5F0F4"/>
<path d="M117.978 93.9429H111.969V99.9517H117.978V93.9429Z" fill="#E5F0F4"/>
<path d="M123.986 93.9429H117.978V99.9517H123.986V93.9429Z" fill="#E5F0F4"/>
<path d="M129.995 93.9429H123.986V99.9517H129.995V93.9429Z" fill="#E5F0F4"/>
<path d="M148.022 93.9429H142.014V99.9517H148.022V93.9429Z" fill="#E5F0F4"/>
<path d="M178.066 93.9429H172.058V99.9517H178.066V93.9429Z" fill="#E5F0F4"/>
<path d="M190.084 93.9429H184.075V99.9517H190.084V93.9429Z" fill="#E5F0F4"/>
<path d="M214.119 93.9429H208.11V99.9517H214.119V93.9429Z" fill="#E5F0F4"/>
<path d="M226.137 93.9429H220.128V99.9517H226.137V93.9429Z" fill="#E5F0F4"/>
<path d="M39.8633 99.9517H33.8545V105.96H39.8633V99.9517Z" fill="#E5F0F4"/>
<path d="M51.8809 99.9517H45.8721V105.96H51.8809V99.9517Z" fill="#E5F0F4"/>
<path d="M63.8985 99.9517H57.8896V105.96H63.8985V99.9517Z" fill="#E5F0F4"/>
<path d="M81.9248 99.9517H75.916V105.96H81.9248V99.9517Z" fill="#E5F0F4"/>
<path d="M99.9522 99.9517H93.9434V105.96H99.9522V99.9517Z" fill="#E5F0F4"/>
<path d="M111.97 99.9517H105.961V105.96H111.97V99.9517Z" fill="#E5F0F4"/>
<path d="M117.978 99.9517H111.969V105.96H117.978V99.9517Z" fill="#E5F0F4"/>
<path d="M136.005 99.9517H129.996V105.96H136.005V99.9517Z" fill="#E5F0F4"/>
<path d="M154.031 99.9517H148.022V105.96H154.031V99.9517Z" fill="#E5F0F4"/>
<path d="M160.04 99.9517H154.031V105.96H160.04V99.9517Z" fill="#E5F0F4"/>
<path d="M172.058 99.9517H166.049V105.96H172.058V99.9517Z" fill="#E5F0F4"/>
<path d="M184.074 99.9517H178.065V105.96H184.074V99.9517Z" fill="#E5F0F4"/>
<path d="M196.093 99.9517H190.084V105.96H196.093V99.9517Z" fill="#E5F0F4"/>
<path d="M226.137 99.9517H220.128V105.96H226.137V99.9517Z" fill="#E5F0F4"/>
<path d="M232.146 99.9517H226.137V105.96H232.146V99.9517Z" fill="#E5F0F4"/>
<path d="M51.8809 105.96H45.8721V111.969H51.8809V105.96Z" fill="#E5F0F4"/>
<path d="M75.9161 105.96H69.9072V111.969H75.9161V105.96Z" fill="#E5F0F4"/>
<path d="M87.9346 105.96H81.9258V111.969H87.9346V105.96Z" fill="#E5F0F4"/>
<path d="M93.9434 105.96H87.9346V111.969H93.9434V105.96Z" fill="#E5F0F4"/>
<path d="M111.97 105.96H105.961V111.969H111.97V105.96Z" fill="#E5F0F4"/>
<path d="M117.978 105.96H111.969V111.969H117.978V105.96Z" fill="#E5F0F4"/>
<path d="M136.005 105.96H129.996V111.969H136.005V105.96Z" fill="#E5F0F4"/>
<path d="M172.058 105.96H166.049V111.969H172.058V105.96Z" fill="#E5F0F4"/>
<path d="M178.066 105.96H172.058V111.969H178.066V105.96Z" fill="#E5F0F4"/>
<path d="M184.074 105.96H178.065V111.969H184.074V105.96Z" fill="#E5F0F4"/>
<path d="M196.093 105.96H190.084V111.969H196.093V105.96Z" fill="#E5F0F4"/>
<path d="M208.11 105.96H202.102V111.969H208.11V105.96Z" fill="#E5F0F4"/>
<path d="M214.119 105.96H208.11V111.969H214.119V105.96Z" fill="#E5F0F4"/>
<path d="M232.146 105.96H226.137V111.969H232.146V105.96Z" fill="#E5F0F4"/>
<path d="M39.8633 111.969H33.8545V117.978H39.8633V111.969Z" fill="#E5F0F4"/>
<path d="M51.8809 111.969H45.8721V117.978H51.8809V111.969Z" fill="#E5F0F4"/>
<path d="M63.8985 111.969H57.8896V117.978H63.8985V111.969Z" fill="#E5F0F4"/>
<path d="M69.9073 111.969H63.8984V117.978H69.9073V111.969Z" fill="#E5F0F4"/>
<path d="M81.9248 111.969H75.916V117.978H81.9248V111.969Z" fill="#E5F0F4"/>
<path d="M99.9522 111.969H93.9434V117.978H99.9522V111.969Z" fill="#E5F0F4"/>
<path d="M105.96 111.969H99.9512V117.978H105.96V111.969Z" fill="#E5F0F4"/>
<path d="M111.97 111.969H105.961V117.978H111.97V111.969Z" fill="#E5F0F4"/>
<path d="M123.986 111.969H117.978V117.978H123.986V111.969Z" fill="#E5F0F4"/>
<path d="M142.014 111.969H136.005V117.978H142.014V111.969Z" fill="#E5F0F4"/>
<path d="M148.022 111.969H142.014V117.978H148.022V111.969Z" fill="#E5F0F4"/>
<path d="M154.031 111.969H148.022V117.978H154.031V111.969Z" fill="#E5F0F4"/>
<path d="M160.04 111.969H154.031V117.978H160.04V111.969Z" fill="#E5F0F4"/>
<path d="M184.074 111.969H178.065V117.978H184.074V111.969Z" fill="#E5F0F4"/>
<path d="M196.093 111.969H190.084V117.978H196.093V111.969Z" fill="#E5F0F4"/>
<path d="M202.102 111.969H196.093V117.978H202.102V111.969Z" fill="#E5F0F4"/>
<path d="M220.128 111.969H214.119V117.978H220.128V111.969Z" fill="#E5F0F4"/>
<path d="M51.8809 117.978H45.8721V123.987H51.8809V117.978Z" fill="#E5F0F4"/>
<path d="M57.8897 117.978H51.8809V123.987H57.8897V117.978Z" fill="#E5F0F4"/>
<path d="M63.8985 117.978H57.8896V123.987H63.8985V117.978Z" fill="#E5F0F4"/>
<path d="M69.9073 117.978H63.8984V123.987H69.9073V117.978Z" fill="#E5F0F4"/>
<path d="M75.9161 117.978H69.9072V123.987H75.9161V117.978Z" fill="#E5F0F4"/>
<path d="M99.9522 117.978H93.9434V123.987H99.9522V117.978Z" fill="#E5F0F4"/>
<path d="M105.96 117.978H99.9512V123.987H105.96V117.978Z" fill="#E5F0F4"/>
<path d="M123.986 117.978H117.978V123.987H123.986V117.978Z" fill="#E5F0F4"/>
<path d="M129.995 117.978H123.986V123.987H129.995V117.978Z" fill="#E5F0F4"/>
<path d="M142.014 117.978H136.005V123.987H142.014V117.978Z" fill="#E5F0F4"/>
<path d="M148.022 117.978H142.014V123.987H148.022V117.978Z" fill="#E5F0F4"/>
<path d="M160.04 117.978H154.031V123.987H160.04V117.978Z" fill="#E5F0F4"/>
<path d="M166.049 117.978H160.04V123.987H166.049V117.978Z" fill="#E5F0F4"/>
<path d="M178.066 117.978H172.058V123.987H178.066V117.978Z" fill="#E5F0F4"/>
<path d="M184.074 117.978H178.065V123.987H184.074V117.978Z" fill="#E5F0F4"/>
<path d="M190.084 117.978H184.075V123.987H190.084V117.978Z" fill="#E5F0F4"/>
<path d="M196.093 117.978H190.084V123.987H196.093V117.978Z" fill="#E5F0F4"/>
<path d="M208.11 117.978H202.102V123.987H208.11V117.978Z" fill="#E5F0F4"/>
<path d="M214.119 117.978H208.11V123.987H214.119V117.978Z" fill="#E5F0F4"/>
<path d="M220.128 117.978H214.119V123.987H220.128V117.978Z" fill="#E5F0F4"/>
<path d="M226.137 117.978H220.128V123.987H226.137V117.978Z" fill="#E5F0F4"/>
<path d="M39.8633 123.987H33.8545V129.996H39.8633V123.987Z" fill="#E5F0F4"/>
<path d="M45.8721 123.987H39.8633V129.996H45.8721V123.987Z" fill="#E5F0F4"/>
<path d="M63.8985 123.987H57.8896V129.996H63.8985V123.987Z" fill="#E5F0F4"/>
<path d="M81.9248 123.987H75.916V129.996H81.9248V123.987Z" fill="#E5F0F4"/>
<path d="M87.9346 123.987H81.9258V129.996H87.9346V123.987Z" fill="#E5F0F4"/>
<path d="M99.9522 123.987H93.9434V129.996H99.9522V123.987Z" fill="#E5F0F4"/>
<path d="M117.978 123.987H111.969V129.996H117.978V123.987Z" fill="#E5F0F4"/>
<path d="M123.986 123.987H117.978V129.996H123.986V123.987Z" fill="#E5F0F4"/>
<path d="M129.995 123.987H123.986V129.996H129.995V123.987Z" fill="#E5F0F4"/>
<path d="M136.005 123.987H129.996V129.996H136.005V123.987Z" fill="#E5F0F4"/>
<path d="M142.014 123.987H136.005V129.996H142.014V123.987Z" fill="#E5F0F4"/>
<path d="M148.022 123.987H142.014V129.996H148.022V123.987Z" fill="#E5F0F4"/>
<path d="M166.049 123.987H160.04V129.996H166.049V123.987Z" fill="#E5F0F4"/>
<path d="M178.066 123.987H172.058V129.996H178.066V123.987Z" fill="#E5F0F4"/>
<path d="M190.084 123.987H184.075V129.996H190.084V123.987Z" fill="#E5F0F4"/>
<path d="M196.093 123.987H190.084V129.996H196.093V123.987Z" fill="#E5F0F4"/>
<path d="M208.11 123.987H202.102V129.996H208.11V123.987Z" fill="#E5F0F4"/>
<path d="M39.8633 129.996H33.8545V136.004H39.8633V129.996Z" fill="#E5F0F4"/>
<path d="M45.8721 129.996H39.8633V136.004H45.8721V129.996Z" fill="#E5F0F4"/>
<path d="M57.8897 129.996H51.8809V136.004H57.8897V129.996Z" fill="#E5F0F4"/>
<path d="M63.8985 129.996H57.8896V136.004H63.8985V129.996Z" fill="#E5F0F4"/>
<path d="M69.9073 129.996H63.8984V136.004H69.9073V129.996Z" fill="#E5F0F4"/>
<path d="M75.9161 129.996H69.9072V136.004H75.9161V129.996Z" fill="#E5F0F4"/>
<path d="M87.9346 129.996H81.9258V136.004H87.9346V129.996Z" fill="#E5F0F4"/>
<path d="M93.9434 129.996H87.9346V136.004H93.9434V129.996Z" fill="#E5F0F4"/>
<path d="M105.96 129.996H99.9512V136.004H105.96V129.996Z" fill="#E5F0F4"/>
<path d="M111.97 129.996H105.961V136.004H111.97V129.996Z" fill="#E5F0F4"/>
<path d="M142.014 129.996H136.005V136.004H142.014V129.996Z" fill="#E5F0F4"/>
<path d="M148.022 129.996H142.014V136.004H148.022V129.996Z" fill="#E5F0F4"/>
<path d="M154.031 129.996H148.022V136.004H154.031V129.996Z" fill="#E5F0F4"/>
<path d="M160.04 129.996H154.031V136.004H160.04V129.996Z" fill="#E5F0F4"/>
<path d="M166.049 129.996H160.04V136.004H166.049V129.996Z" fill="#E5F0F4"/>
<path d="M172.058 129.996H166.049V136.004H172.058V129.996Z" fill="#E5F0F4"/>
<path d="M184.074 129.996H178.065V136.004H184.074V129.996Z" fill="#E5F0F4"/>
<path d="M196.093 129.996H190.084V136.004H196.093V129.996Z" fill="#E5F0F4"/>
<path d="M208.11 129.996H202.102V136.004H208.11V129.996Z" fill="#E5F0F4"/>
<path d="M214.119 129.996H208.11V136.004H214.119V129.996Z" fill="#E5F0F4"/>
<path d="M226.137 129.996H220.128V136.004H226.137V129.996Z" fill="#E5F0F4"/>
<path d="M45.8721 136.005H39.8633V142.014H45.8721V136.005Z" fill="#E5F0F4"/>
<path d="M63.8985 136.005H57.8896V142.014H63.8985V136.005Z" fill="#E5F0F4"/>
<path d="M69.9073 136.005H63.8984V142.014H69.9073V136.005Z" fill="#E5F0F4"/>
<path d="M81.9248 136.005H75.916V142.014H81.9248V136.005Z" fill="#E5F0F4"/>
<path d="M87.9346 136.005H81.9258V142.014H87.9346V136.005Z" fill="#E5F0F4"/>
<path d="M93.9434 136.005H87.9346V142.014H93.9434V136.005Z" fill="#E5F0F4"/>
<path d="M99.9522 136.005H93.9434V142.014H99.9522V136.005Z" fill="#E5F0F4"/>
<path d="M129.995 136.005H123.986V142.014H129.995V136.005Z" fill="#E5F0F4"/>
<path d="M136.005 136.005H129.996V142.014H136.005V136.005Z" fill="#E5F0F4"/>
<path d="M148.022 136.005H142.014V142.014H148.022V136.005Z" fill="#E5F0F4"/>
<path d="M160.04 136.005H154.031V142.014H160.04V136.005Z" fill="#E5F0F4"/>
<path d="M172.058 136.005H166.049V142.014H172.058V136.005Z" fill="#E5F0F4"/>
<path d="M178.066 136.005H172.058V142.014H178.066V136.005Z" fill="#E5F0F4"/>
<path d="M184.074 136.005H178.065V142.014H184.074V136.005Z" fill="#E5F0F4"/>
<path d="M214.119 136.005H208.11V142.014H214.119V136.005Z" fill="#E5F0F4"/>
<path d="M220.128 136.005H214.119V142.014H220.128V136.005Z" fill="#E5F0F4"/>
<path d="M226.137 136.005H220.128V142.014H226.137V136.005Z" fill="#E5F0F4"/>
<path d="M232.146 136.005H226.137V142.014H232.146V136.005Z" fill="#E5F0F4"/>
<path d="M45.8721 142.013H39.8633V148.022H45.8721V142.013Z" fill="#E5F0F4"/>
<path d="M51.8809 142.013H45.8721V148.022H51.8809V142.013Z" fill="#E5F0F4"/>
<path d="M57.8897 142.013H51.8809V148.022H57.8897V142.013Z" fill="#E5F0F4"/>
<path d="M63.8985 142.013H57.8896V148.022H63.8985V142.013Z" fill="#E5F0F4"/>
<path d="M69.9073 142.013H63.8984V148.022H69.9073V142.013Z" fill="#E5F0F4"/>
<path d="M75.9161 142.013H69.9072V148.022H75.9161V142.013Z" fill="#E5F0F4"/>
<path d="M81.9248 142.013H75.916V148.022H81.9248V142.013Z" fill="#E5F0F4"/>
<path d="M111.97 142.013H105.961V148.022H111.97V142.013Z" fill="#E5F0F4"/>
<path d="M117.978 142.013H111.969V148.022H117.978V142.013Z" fill="#E5F0F4"/>
<path d="M129.995 142.013H123.986V148.022H129.995V142.013Z" fill="#E5F0F4"/>
<path d="M136.005 142.013H129.996V148.022H136.005V142.013Z" fill="#E5F0F4"/>
<path d="M142.014 142.013H136.005V148.022H142.014V142.013Z" fill="#E5F0F4"/>
<path d="M160.04 142.013H154.031V148.022H160.04V142.013Z" fill="#E5F0F4"/>
<path d="M166.049 142.013H160.04V148.022H166.049V142.013Z" fill="#E5F0F4"/>
<path d="M172.058 142.013H166.049V148.022H172.058V142.013Z" fill="#E5F0F4"/>
<path d="M178.066 142.013H172.058V148.022H178.066V142.013Z" fill="#E5F0F4"/>
<path d="M184.074 142.013H178.065V148.022H184.074V142.013Z" fill="#E5F0F4"/>
<path d="M196.093 142.013H190.084V148.022H196.093V142.013Z" fill="#E5F0F4"/>
<path d="M202.102 142.013H196.093V148.022H202.102V142.013Z" fill="#E5F0F4"/>
<path d="M214.119 142.013H208.11V148.022H214.119V142.013Z" fill="#E5F0F4"/>
<path d="M226.137 142.013H220.128V148.022H226.137V142.013Z" fill="#E5F0F4"/>
<path d="M45.8721 148.022H39.8633V154.031H45.8721V148.022Z" fill="#E5F0F4"/>
<path d="M51.8809 148.022H45.8721V154.031H51.8809V148.022Z" fill="#E5F0F4"/>
<path d="M81.9248 148.022H75.916V154.031H81.9248V148.022Z" fill="#E5F0F4"/>
<path d="M111.97 148.022H105.961V154.031H111.97V148.022Z" fill="#E5F0F4"/>
<path d="M123.986 148.022H117.978V154.031H123.986V148.022Z" fill="#E5F0F4"/>
<path d="M129.995 148.022H123.986V154.031H129.995V148.022Z" fill="#E5F0F4"/>
<path d="M142.014 148.022H136.005V154.031H142.014V148.022Z" fill="#E5F0F4"/>
<path d="M148.022 148.022H142.014V154.031H148.022V148.022Z" fill="#E5F0F4"/>
<path d="M160.04 148.022H154.031V154.031H160.04V148.022Z" fill="#E5F0F4"/>
<path d="M166.049 148.022H160.04V154.031H166.049V148.022Z" fill="#E5F0F4"/>
<path d="M184.074 148.022H178.065V154.031H184.074V148.022Z" fill="#E5F0F4"/>
<path d="M196.093 148.022H190.084V154.031H196.093V148.022Z" fill="#E5F0F4"/>
<path d="M202.102 148.022H196.093V154.031H202.102V148.022Z" fill="#E5F0F4"/>
<path d="M226.137 148.022H220.128V154.031H226.137V148.022Z" fill="#E5F0F4"/>
<path d="M39.8633 154.031H33.8545V160.04H39.8633V154.031Z" fill="#E5F0F4"/>
<path d="M51.8809 154.031H45.8721V160.04H51.8809V154.031Z" fill="#E5F0F4"/>
<path d="M63.8985 154.031H57.8896V160.04H63.8985V154.031Z" fill="#E5F0F4"/>
<path d="M69.9073 154.031H63.8984V160.04H69.9073V154.031Z" fill="#E5F0F4"/>
<path d="M75.9161 154.031H69.9072V160.04H75.9161V154.031Z" fill="#E5F0F4"/>
<path d="M81.9248 154.031H75.916V160.04H81.9248V154.031Z" fill="#E5F0F4"/>
<path d="M87.9346 154.031H81.9258V160.04H87.9346V154.031Z" fill="#E5F0F4"/>
<path d="M99.9522 154.031H93.9434V160.04H99.9522V154.031Z" fill="#E5F0F4"/>
<path d="M105.96 154.031H99.9512V160.04H105.96V154.031Z" fill="#E5F0F4"/>
<path d="M111.97 154.031H105.961V160.04H111.97V154.031Z" fill="#E5F0F4"/>
<path d="M117.978 154.031H111.969V160.04H117.978V154.031Z" fill="#E5F0F4"/>
<path d="M148.022 154.031H142.014V160.04H148.022V154.031Z" fill="#E5F0F4"/>
<path d="M154.031 154.031H148.022V160.04H154.031V154.031Z" fill="#E5F0F4"/>
<path d="M160.04 154.031H154.031V160.04H160.04V154.031Z" fill="#E5F0F4"/>
<path d="M196.093 154.031H190.084V160.04H196.093V154.031Z" fill="#E5F0F4"/>
<path d="M214.119 154.031H208.11V160.04H214.119V154.031Z" fill="#E5F0F4"/>
<path d="M39.8633 160.04H33.8545V166.049H39.8633V160.04Z" fill="#E5F0F4"/>
<path d="M51.8809 160.04H45.8721V166.049H51.8809V160.04Z" fill="#E5F0F4"/>
<path d="M87.9346 160.04H81.9258V166.049H87.9346V160.04Z" fill="#E5F0F4"/>
<path d="M99.9522 160.04H93.9434V166.049H99.9522V160.04Z" fill="#E5F0F4"/>
<path d="M111.97 160.04H105.961V166.049H111.97V160.04Z" fill="#E5F0F4"/>
<path d="M123.986 160.04H117.978V166.049H123.986V160.04Z" fill="#E5F0F4"/>
<path d="M136.005 160.04H129.996V166.049H136.005V160.04Z" fill="#E5F0F4"/>
<path d="M142.014 160.04H136.005V166.049H142.014V160.04Z" fill="#E5F0F4"/>
<path d="M154.031 160.04H148.022V166.049H154.031V160.04Z" fill="#E5F0F4"/>
<path d="M172.058 160.04H166.049V166.049H172.058V160.04Z" fill="#E5F0F4"/>
<path d="M196.093 160.04H190.084V166.049H196.093V160.04Z" fill="#E5F0F4"/>
<path d="M202.102 160.04H196.093V166.049H202.102V160.04Z" fill="#E5F0F4"/>
<path d="M220.128 160.04H214.119V166.049H220.128V160.04Z" fill="#E5F0F4"/>
<path d="M226.137 160.04H220.128V166.049H226.137V160.04Z" fill="#E5F0F4"/>
<path d="M63.8985 166.049H57.8896V172.058H63.8985V166.049Z" fill="#E5F0F4"/>
<path d="M69.9073 166.049H63.8984V172.058H69.9073V166.049Z" fill="#E5F0F4"/>
<path d="M75.9161 166.049H69.9072V172.058H75.9161V166.049Z" fill="#E5F0F4"/>
<path d="M81.9248 166.049H75.916V172.058H81.9248V166.049Z" fill="#E5F0F4"/>
<path d="M87.9346 166.049H81.9258V172.058H87.9346V166.049Z" fill="#E5F0F4"/>
<path d="M111.97 166.049H105.961V172.058H111.97V166.049Z" fill="#E5F0F4"/>
<path d="M123.986 166.049H117.978V172.058H123.986V166.049Z" fill="#E5F0F4"/>
<path d="M136.005 166.049H129.996V172.058H136.005V166.049Z" fill="#E5F0F4"/>
<path d="M148.022 166.049H142.014V172.058H148.022V166.049Z" fill="#E5F0F4"/>
<path d="M154.031 166.049H148.022V172.058H154.031V166.049Z" fill="#E5F0F4"/>
<path d="M166.049 166.049H160.04V172.058H166.049V166.049Z" fill="#E5F0F4"/>
<path d="M178.066 166.049H172.058V172.058H178.066V166.049Z" fill="#E5F0F4"/>
<path d="M190.084 166.049H184.075V172.058H190.084V166.049Z" fill="#E5F0F4"/>
<path d="M208.11 166.049H202.102V172.058H208.11V166.049Z" fill="#E5F0F4"/>
<path d="M214.119 166.049H208.11V172.058H214.119V166.049Z" fill="#E5F0F4"/>
<path d="M220.128 166.049H214.119V172.058H220.128V166.049Z" fill="#E5F0F4"/>
<path d="M226.137 166.049H220.128V172.058H226.137V166.049Z" fill="#E5F0F4"/>
<path d="M63.8985 172.058H57.8896V178.066H63.8985V172.058Z" fill="#E5F0F4"/>
<path d="M69.9073 172.058H63.8984V178.066H69.9073V172.058Z" fill="#E5F0F4"/>
<path d="M81.9248 172.058H75.916V178.066H81.9248V172.058Z" fill="#E5F0F4"/>
<path d="M87.9346 172.058H81.9258V178.066H87.9346V172.058Z" fill="#E5F0F4"/>
<path d="M99.9522 172.058H93.9434V178.066H99.9522V172.058Z" fill="#E5F0F4"/>
<path d="M105.96 172.058H99.9512V178.066H105.96V172.058Z" fill="#E5F0F4"/>
<path d="M117.978 172.058H111.969V178.066H117.978V172.058Z" fill="#E5F0F4"/>
<path d="M142.014 172.058H136.005V178.066H142.014V172.058Z" fill="#E5F0F4"/>
<path d="M148.022 172.058H142.014V178.066H148.022V172.058Z" fill="#E5F0F4"/>
<path d="M154.031 172.058H148.022V178.066H154.031V172.058Z" fill="#E5F0F4"/>
<path d="M160.04 172.058H154.031V178.066H160.04V172.058Z" fill="#E5F0F4"/>
<path d="M166.049 172.058H160.04V178.066H166.049V172.058Z" fill="#E5F0F4"/>
<path d="M172.058 172.058H166.049V178.066H172.058V172.058Z" fill="#E5F0F4"/>
<path d="M178.066 172.058H172.058V178.066H178.066V172.058Z" fill="#E5F0F4"/>
<path d="M184.074 172.058H178.065V178.066H184.074V172.058Z" fill="#E5F0F4"/>
<path d="M190.084 172.058H184.075V178.066H190.084V172.058Z" fill="#E5F0F4"/>
<path d="M196.093 172.058H190.084V178.066H196.093V172.058Z" fill="#E5F0F4"/>
<path d="M226.137 172.058H220.128V178.066H226.137V172.058Z" fill="#E5F0F4"/>
<path d="M232.146 172.058H226.137V178.066H232.146V172.058Z" fill="#E5F0F4"/>
<path d="M39.8633 178.066H33.8545V184.075H39.8633V178.066Z" fill="#E5F0F4"/>
<path d="M45.8721 178.066H39.8633V184.075H45.8721V178.066Z" fill="#E5F0F4"/>
<path d="M51.8809 178.066H45.8721V184.075H51.8809V178.066Z" fill="#E5F0F4"/>
<path d="M63.8985 178.066H57.8896V184.075H63.8985V178.066Z" fill="#E5F0F4"/>
<path d="M75.9161 178.066H69.9072V184.075H75.9161V178.066Z" fill="#E5F0F4"/>
<path d="M81.9248 178.066H75.916V184.075H81.9248V178.066Z" fill="#E5F0F4"/>
<path d="M99.9522 178.066H93.9434V184.075H99.9522V178.066Z" fill="#E5F0F4"/>
<path d="M105.96 178.066H99.9512V184.075H105.96V178.066Z" fill="#E5F0F4"/>
<path d="M117.978 178.066H111.969V184.075H117.978V178.066Z" fill="#E5F0F4"/>
<path d="M123.986 178.066H117.978V184.075H123.986V178.066Z" fill="#E5F0F4"/>
<path d="M129.995 178.066H123.986V184.075H129.995V178.066Z" fill="#E5F0F4"/>
<path d="M136.005 178.066H129.996V184.075H136.005V178.066Z" fill="#E5F0F4"/>
<path d="M142.014 178.066H136.005V184.075H142.014V178.066Z" fill="#E5F0F4"/>
<path d="M160.04 178.066H154.031V184.075H160.04V178.066Z" fill="#E5F0F4"/>
<path d="M166.049 178.066H160.04V184.075H166.049V178.066Z" fill="#E5F0F4"/>
<path d="M172.058 178.066H166.049V184.075H172.058V178.066Z" fill="#E5F0F4"/>
<path d="M184.074 178.066H178.065V184.075H184.074V178.066Z" fill="#E5F0F4"/>
<path d="M190.084 178.066H184.075V184.075H190.084V178.066Z" fill="#E5F0F4"/>
<path d="M196.093 178.066H190.084V184.075H196.093V178.066Z" fill="#E5F0F4"/>
<path d="M202.102 178.066H196.093V184.075H202.102V178.066Z" fill="#E5F0F4"/>
<path d="M208.11 178.066H202.102V184.075H208.11V178.066Z" fill="#E5F0F4"/>
<path d="M226.137 178.066H220.128V184.075H226.137V178.066Z" fill="#E5F0F4"/>
<path d="M87.9346 184.075H81.9258V190.084H87.9346V184.075Z" fill="#E5F0F4"/>
<path d="M93.9434 184.075H87.9346V190.084H93.9434V184.075Z" fill="#E5F0F4"/>
<path d="M99.9522 184.075H93.9434V190.084H99.9522V184.075Z" fill="#E5F0F4"/>
<path d="M105.96 184.075H99.9512V190.084H105.96V184.075Z" fill="#E5F0F4"/>
<path d="M123.986 184.075H117.978V190.084H123.986V184.075Z" fill="#E5F0F4"/>
<path d="M129.995 184.075H123.986V190.084H129.995V184.075Z" fill="#E5F0F4"/>
<path d="M136.005 184.075H129.996V190.084H136.005V184.075Z" fill="#E5F0F4"/>
<path d="M142.014 184.075H136.005V190.084H142.014V184.075Z" fill="#E5F0F4"/>
<path d="M166.049 184.075H160.04V190.084H166.049V184.075Z" fill="#E5F0F4"/>
<path d="M172.058 184.075H166.049V190.084H172.058V184.075Z" fill="#E5F0F4"/>
<path d="M178.066 184.075H172.058V190.084H178.066V184.075Z" fill="#E5F0F4"/>
<path d="M184.074 184.075H178.065V190.084H184.074V184.075Z" fill="#E5F0F4"/>
<path d="M208.11 184.075H202.102V190.084H208.11V184.075Z" fill="#E5F0F4"/>
<path d="M220.128 184.075H214.119V190.084H220.128V184.075Z" fill="#E5F0F4"/>
<path d="M87.9346 190.084H81.9258V196.093H87.9346V190.084Z" fill="#E5F0F4"/>
<path d="M99.9522 190.084H93.9434V196.093H99.9522V190.084Z" fill="#E5F0F4"/>
<path d="M117.978 190.084H111.969V196.093H117.978V190.084Z" fill="#E5F0F4"/>
<path d="M129.995 190.084H123.986V196.093H129.995V190.084Z" fill="#E5F0F4"/>
<path d="M148.022 190.084H142.014V196.093H148.022V190.084Z" fill="#E5F0F4"/>
<path d="M184.074 190.084H178.065V196.093H184.074V190.084Z" fill="#E5F0F4"/>
<path d="M196.093 190.084H190.084V196.093H196.093V190.084Z" fill="#E5F0F4"/>
<path d="M208.11 190.084H202.102V196.093H208.11V190.084Z" fill="#E5F0F4"/>
<path d="M214.119 190.084H208.11V196.093H214.119V190.084Z" fill="#E5F0F4"/>
<path d="M99.9522 196.093H93.9434V202.102H99.9522V196.093Z" fill="#E5F0F4"/>
<path d="M105.96 196.093H99.9512V202.102H105.96V196.093Z" fill="#E5F0F4"/>
<path d="M123.986 196.093H117.978V202.102H123.986V196.093Z" fill="#E5F0F4"/>
<path d="M129.995 196.093H123.986V202.102H129.995V196.093Z" fill="#E5F0F4"/>
<path d="M136.005 196.093H129.996V202.102H136.005V196.093Z" fill="#E5F0F4"/>
<path d="M154.031 196.093H148.022V202.102H154.031V196.093Z" fill="#E5F0F4"/>
<path d="M172.058 196.093H166.049V202.102H172.058V196.093Z" fill="#E5F0F4"/>
<path d="M184.074 196.093H178.065V202.102H184.074V196.093Z" fill="#E5F0F4"/>
<path d="M208.11 196.093H202.102V202.102H208.11V196.093Z" fill="#E5F0F4"/>
<path d="M232.146 196.093H226.137V202.102H232.146V196.093Z" fill="#E5F0F4"/>
<path d="M87.9346 202.102H81.9258V208.11H87.9346V202.102Z" fill="#E5F0F4"/>
<path d="M93.9434 202.102H87.9346V208.11H93.9434V202.102Z" fill="#E5F0F4"/>
<path d="M99.9522 202.102H93.9434V208.11H99.9522V202.102Z" fill="#E5F0F4"/>
<path d="M105.96 202.102H99.9512V208.11H105.96V202.102Z" fill="#E5F0F4"/>
<path d="M111.97 202.102H105.961V208.11H111.97V202.102Z" fill="#E5F0F4"/>
<path d="M117.978 202.102H111.969V208.11H117.978V202.102Z" fill="#E5F0F4"/>
<path d="M123.986 202.102H117.978V208.11H123.986V202.102Z" fill="#E5F0F4"/>
<path d="M136.005 202.102H129.996V208.11H136.005V202.102Z" fill="#E5F0F4"/>
<path d="M154.031 202.102H148.022V208.11H154.031V202.102Z" fill="#E5F0F4"/>
<path d="M172.058 202.102H166.049V208.11H172.058V202.102Z" fill="#E5F0F4"/>
<path d="M184.074 202.102H178.065V208.11H184.074V202.102Z" fill="#E5F0F4"/>
<path d="M190.084 202.102H184.075V208.11H190.084V202.102Z" fill="#E5F0F4"/>
<path d="M196.093 202.102H190.084V208.11H196.093V202.102Z" fill="#E5F0F4"/>
<path d="M202.102 202.102H196.093V208.11H202.102V202.102Z" fill="#E5F0F4"/>
<path d="M208.11 202.102H202.102V208.11H208.11V202.102Z" fill="#E5F0F4"/>
<path d="M214.119 202.102H208.11V208.11H214.119V202.102Z" fill="#E5F0F4"/>
<path d="M232.146 202.102H226.137V208.11H232.146V202.102Z" fill="#E5F0F4"/>
<path d="M93.9434 208.11H87.9346V214.119H93.9434V208.11Z" fill="#E5F0F4"/>
<path d="M117.978 208.11H111.969V214.119H117.978V208.11Z" fill="#E5F0F4"/>
<path d="M123.986 208.11H117.978V214.119H123.986V208.11Z" fill="#E5F0F4"/>
<path d="M148.022 208.11H142.014V214.119H148.022V208.11Z" fill="#E5F0F4"/>
<path d="M154.031 208.11H148.022V214.119H154.031V208.11Z" fill="#E5F0F4"/>
<path d="M160.04 208.11H154.031V214.119H160.04V208.11Z" fill="#E5F0F4"/>
<path d="M178.066 208.11H172.058V214.119H178.066V208.11Z" fill="#E5F0F4"/>
<path d="M196.093 208.11H190.084V214.119H196.093V208.11Z" fill="#E5F0F4"/>
<path d="M202.102 208.11H196.093V214.119H202.102V208.11Z" fill="#E5F0F4"/>
<path d="M208.11 208.11H202.102V214.119H208.11V208.11Z" fill="#E5F0F4"/>
<path d="M214.119 208.11H208.11V214.119H214.119V208.11Z" fill="#E5F0F4"/>
<path d="M220.128 208.11H214.119V214.119H220.128V208.11Z" fill="#E5F0F4"/>
<path d="M226.137 208.11H220.128V214.119H226.137V208.11Z" fill="#E5F0F4"/>
<path d="M93.9434 214.12H87.9346V220.128H93.9434V214.12Z" fill="#E5F0F4"/>
<path d="M123.986 214.12H117.978V220.128H123.986V214.12Z" fill="#E5F0F4"/>
<path d="M129.995 214.12H123.986V220.128H129.995V214.12Z" fill="#E5F0F4"/>
<path d="M148.022 214.12H142.014V220.128H148.022V214.12Z" fill="#E5F0F4"/>
<path d="M160.04 214.12H154.031V220.128H160.04V214.12Z" fill="#E5F0F4"/>
<path d="M166.049 214.12H160.04V220.128H166.049V214.12Z" fill="#E5F0F4"/>
<path d="M190.084 214.12H184.075V220.128H190.084V214.12Z" fill="#E5F0F4"/>
<path d="M196.093 214.12H190.084V220.128H196.093V214.12Z" fill="#E5F0F4"/>
<path d="M202.102 214.12H196.093V220.128H202.102V214.12Z" fill="#E5F0F4"/>
<path d="M208.11 214.12H202.102V220.128H208.11V214.12Z" fill="#E5F0F4"/>
<path d="M214.119 214.12H208.11V220.128H214.119V214.12Z" fill="#E5F0F4"/>
<path d="M220.128 214.12H214.119V220.128H220.128V214.12Z" fill="#E5F0F4"/>
<path d="M105.96 220.128H99.9512V226.137H105.96V220.128Z" fill="#E5F0F4"/>
<path d="M111.97 220.128H105.961V226.137H111.97V220.128Z" fill="#E5F0F4"/>
<path d="M117.978 220.128H111.969V226.137H117.978V220.128Z" fill="#E5F0F4"/>
<path d="M129.995 220.128H123.986V226.137H129.995V220.128Z" fill="#E5F0F4"/>
<path d="M136.005 220.128H129.996V226.137H136.005V220.128Z" fill="#E5F0F4"/>
<path d="M142.014 220.128H136.005V226.137H142.014V220.128Z" fill="#E5F0F4"/>
<path d="M148.022 220.128H142.014V226.137H148.022V220.128Z" fill="#E5F0F4"/>
<path d="M166.049 220.128H160.04V226.137H166.049V220.128Z" fill="#E5F0F4"/>
<path d="M196.093 220.128H190.084V226.137H196.093V220.128Z" fill="#E5F0F4"/>
<path d="M87.9346 226.137H81.9258V232.146H87.9346V226.137Z" fill="#E5F0F4"/>
<path d="M99.9522 226.137H93.9434V232.146H99.9522V226.137Z" fill="#E5F0F4"/>
<path d="M142.014 226.137H136.005V232.146H142.014V226.137Z" fill="#E5F0F4"/>
<path d="M154.031 226.137H148.022V232.146H154.031V226.137Z" fill="#E5F0F4"/>
<path d="M160.04 226.137H154.031V232.146H160.04V226.137Z" fill="#E5F0F4"/>
<path d="M166.049 226.137H160.04V232.146H166.049V226.137Z" fill="#E5F0F4"/>
<path d="M172.058 226.137H166.049V232.146H172.058V226.137Z" fill="#E5F0F4"/>
<path d="M178.066 226.137H172.058V232.146H178.066V226.137Z" fill="#E5F0F4"/>
<path d="M184.074 226.137H178.065V232.146H184.074V226.137Z" fill="#E5F0F4"/>
<path d="M196.093 226.137H190.084V232.146H196.093V226.137Z" fill="#E5F0F4"/>
<path d="M220.128 226.137H214.119V232.146H220.128V226.137Z" fill="#E5F0F4"/>
<path d="M232.146 226.137H226.137V232.146H232.146V226.137Z" fill="#E5F0F4"/>
<path d="M69.607 33.8545H40.1638H33.8545V40.1638V69.607V75.9163H40.1638H69.607H75.9163V69.607V40.1638V33.8545H69.607ZM69.607 69.607H40.1638V40.1638H69.607V69.607Z" fill="#E5F0F4"/>
<path d="M225.836 33.8545H196.393H190.084V40.1638V69.607V75.9163H196.393H225.836H232.146V69.607V40.1638V33.8545H225.836ZM225.836 69.607H196.393V40.1638H225.836V69.607Z" fill="#E5F0F4"/>
<path d="M69.607 190.084H40.1638H33.8545V196.393V225.836V232.146H40.1638H69.607H75.9163V225.836V196.393V190.084H69.607ZM69.607 225.836H40.1638V196.393H69.607V225.836Z" fill="#E5F0F4"/>
<path d="M63.8985 45.8721H45.8721V63.8985H63.8985V45.8721Z" fill="#E5F0F4"/>
<path d="M220.128 45.8721H202.102V63.8985H220.128V45.8721Z" fill="#E5F0F4"/>
<path d="M63.8985 202.102H45.8721V220.128H63.8985V202.102Z" fill="#E5F0F4"/>
<defs>
<filter id="filter0_b_37_8819" x="-23" y="-23" width="312" height="312" filterUnits="userSpaceOnUse" color-interpolation-filters="sRGB">
<feFlood flood-opacity="0" result="BackgroundImageFix"/>
<feGaussianBlur in="BackgroundImageFix" stdDeviation="11.5"/>
<feComposite in2="SourceAlpha" operator="in" result="effect1_backgroundBlur_37_8819"/>
<feBlend mode="normal" in="SourceGraphic" in2="effect1_backgroundBlur_37_8819" result="shape"/>
</filter>
<linearGradient id="paint0_linear_37_8819" x1="8.53062" y1="8.3932" x2="269.875" y2="272.459" gradientUnits="userSpaceOnUse">
<stop offset="0.0001" stop-color="#FDFDFD" stop-opacity="0.22"/>
<stop offset="1" stop-color="#F3F3F3" stop-opacity="0"/>
</linearGradient>
<linearGradient id="paint1_linear_37_8819" x1="2.18441e-06" y1="251.038" x2="360.094" y2="193.405" gradientUnits="userSpaceOnUse">
<stop stop-color="#47DDC2"/>
<stop offset="1" stop-color="#C1FFC8"/>
</linearGradient>
<linearGradient id="paint2_linear_37_8819" x1="18" y1="50.5594" x2="64.704" y2="43.0844" gradientUnits="userSpaceOnUse">
<stop stop-color="#47DDC2"/>
<stop offset="1" stop-color="#C1FFC8"/>
</linearGradient>
<linearGradient id="paint3_linear_37_8819" x1="215.441" y1="18" x2="222.916" y2="64.704" gradientUnits="userSpaceOnUse">
<stop stop-color="#47DDC2"/>
<stop offset="1" stop-color="#C1FFC8"/>
</linearGradient>
<linearGradient id="paint4_linear_37_8819" x1="248" y1="215.441" x2="201.296" y2="222.916" gradientUnits="userSpaceOnUse">
<stop stop-color="#47DDC2"/>
<stop offset="1" stop-color="#C1FFC8"/>
</linearGradient>
<linearGradient id="paint5_linear_37_8819" x1="50.5594" y1="248" x2="43.0844" y2="201.296" gradientUnits="userSpaceOnUse">
<stop stop-color="#47DDC2"/>
<stop offset="1" stop-color="#C1FFC8"/>
</linearGradient>
</defs>
</svg>
