<svg width="215" height="124" viewBox="0 0 215 124" fill="none" xmlns="http://www.w3.org/2000/svg">
<rect y="45" width="5" height="35" rx="2" fill="#FF6393"/>
<rect width="1" height="51" rx="0.5" transform="matrix(-1 0 0 1 3 37)" fill="#FF6393"/>
<rect x="210" y="61" width="5" height="35" rx="2" fill="#FF6393"/>
<rect width="1" height="51" rx="0.5" transform="matrix(-1 0 0 1 213 53)" fill="#FF6393"/>
<rect x="90" y="68.4512" width="5" height="50.098" rx="2" fill="#FF6393"/>
<rect width="1" height="61" rx="0.5" transform="matrix(-1 0 0 1 93 63)" fill="#FF6393"/>
<rect x="30" y="41.8628" width="5" height="21.2745" rx="2" fill="#FF6393"/>
<rect width="1" height="31" rx="0.5" transform="matrix(-1 0 0 1 33 37)" fill="#FF6393"/>
<rect x="120" y="88.8628" width="5" height="21.2745" rx="2" fill="#FF6393"/>
<rect width="1" height="31" rx="0.5" transform="matrix(-1 0 0 1 123 84)" fill="#FF6393"/>
<rect x="40" y="48.8628" width="5" height="21.2745" rx="2" fill="#FF6393"/>
<rect width="1" height="35" rx="0.5" transform="matrix(-1 0 0 1 43 40)" fill="#FF6393"/>
<rect x="130" y="80.8628" width="5" height="21.2745" rx="2" fill="#FF6393"/>
<rect width="1" height="35" rx="0.5" transform="matrix(-1 0 0 1 133 72)" fill="#FF6393"/>
<rect x="70" y="48.8628" width="5" height="21.2745" rx="2" fill="#FF6393"/>
<rect width="1" height="35" rx="0.5" transform="matrix(-1 0 0 1 73 40)" fill="#FF6393"/>
<rect x="180" y="34.8628" width="5" height="21.2745" rx="2" fill="#FF6393"/>
<rect width="1" height="29" rx="0.5" transform="matrix(-1 0 0 1 183 32)" fill="#FF6393"/>
<rect x="160" y="66.8628" width="5" height="21.2745" rx="2" fill="#FF6393"/>
<rect width="1" height="35" rx="0.5" transform="matrix(-1 0 0 1 163 58)" fill="#FF6393"/>
<rect x="80" y="58.8628" width="5" height="21.2745" rx="2" fill="#FF6393"/>
<rect width="1" height="25" rx="0.5" transform="matrix(-1 0 0 1 83 57)" fill="#FF6393"/>
<rect x="190" y="44.8628" width="5" height="21.2745" rx="2" fill="#FF6393"/>
<rect width="1" height="25" rx="0.5" transform="matrix(-1 0 0 1 193 43)" fill="#FF6393"/>
<rect x="10" y="37.1763" width="5" height="22.6471" rx="2" fill="#47DDC2"/>
<rect x="12" y="32" width="1" height="33" rx="0.5" fill="#47DDC2"/>
<rect x="110" y="80.1763" width="5" height="22.6471" rx="2" fill="#47DDC2"/>
<rect x="112" y="75" width="1" height="33" rx="0.5" fill="#47DDC2"/>
<rect x="50" y="37.1763" width="5" height="22.6471" rx="2" fill="#47DDC2"/>
<rect x="52" y="32" width="1" height="33" rx="0.5" fill="#47DDC2"/>
<rect x="200" y="37.1763" width="5" height="22.6471" rx="2" fill="#47DDC2"/>
<rect x="202" y="32" width="1" height="33" rx="0.5" fill="#47DDC2"/>
<rect x="150" y="58.1763" width="5" height="22.6471" rx="2" fill="#47DDC2"/>
<rect x="152" y="53" width="1" height="33" rx="0.5" fill="#47DDC2"/>
<rect x="100" y="96.1763" width="5" height="22.6471" rx="2" fill="#47DDC2"/>
<rect x="102" y="91" width="1" height="33" rx="0.5" fill="#47DDC2"/>
<rect x="60" y="10.1963" width="5" height="44.6078" rx="2" fill="#47DDC2"/>
<rect x="62" width="1" height="65" rx="0.5" fill="#47DDC2"/>
<rect x="140" y="53.1963" width="5" height="44.6078" rx="2" fill="#47DDC2"/>
<rect x="142" y="43" width="1" height="65" rx="0.5" fill="#47DDC2"/>
<rect x="170" y="26.1963" width="5" height="44.6078" rx="2" fill="#47DDC2"/>
<rect x="172" y="16" width="1" height="65" rx="0.5" fill="#47DDC2"/>
<rect x="20" y="23.3726" width="5" height="32.2549" rx="2" fill="#47DDC2"/>
<rect x="22" y="11" width="1" height="47" rx="0.5" fill="#47DDC2"/>
</svg>
