<svg width="10" height="10" viewBox="0 0 10 10" fill="none" xmlns="http://www.w3.org/2000/svg">
<g clip-path="url(#clip0_0_261)">
<path d="M9.375 4.375H5.625V0.625C5.625 0.25 5.375 0 5 0C4.625 0 4.375 0.25 4.375 0.625V4.375H0.625C0.25 4.375 0 4.625 0 5C0 5.375 0.25 5.625 0.625 5.625H4.375V9.375C4.375 9.75 4.625 10 5 10C5.375 10 5.625 9.75 5.625 9.375V5.625H9.375C9.75 5.625 10 5.375 10 5C10 4.625 9.75 4.375 9.375 4.375Z" fill="white"/>
</g>
<defs>
<clipPath id="clip0_0_261">
<rect width="10" height="10" fill="white"/>
</clipPath>
</defs>
</svg>
